<?xml version="1.0" standalone="no"?>
<!DOCTYPE svg PUBLIC "-//W3C//DTD SVG 1.0//EN" "http://www.w3.org/TR/2001/REC-SVG-20010904/DTD/svg10.dtd">
<svg xmlns="http://www.w3.org/2000/svg" xmlns:xlink="http://www.w3.org/1999/xlink" id="body_1" width="50" height="50">

<g transform="matrix(0.25 0 0 0.25 0 0)">
    <path transform="matrix(1 0 0 1 0 0)"  d="M0 0C 66 0 132 0 200 0C 200 66 200 132 200 200C 134 200 68 200 0 200C 0 134 0 68 0 0z" stroke="none" fill="#01487A" fill-rule="nonzero" />
    <path transform="matrix(1 0 0 1 56 51)"  d="M0 0C 8.623629 -0.32661974 17.244614 -0.57421076 25.872927 -0.7253704C 29.881233 -0.79798347 33.885265 -0.89614916 37.891113 -1.0561523C 67.249084 -2.1971688 67.249084 -2.1971688 75.30798 4.4300537C 80.54501 9.86066 83.71435 15.83365 83.8396 23.512207C 83.733376 25.05304 83.733376 25.05304 83.625 26.625C 83.5935 27.71023 83.562 28.79546 83.52954 29.913574C 83.07891 36.09036 81.99413 40.213547 77.62842 44.677246C 75.987335 46.08233 74.28531 47.31699 72.52734 48.570312C 69.63257 50.785637 69.63257 50.785637 69.90625 54.19922C 71.230354 58.80049 72.81435 63.232304 74.5625 67.6875C 75.21572 69.355705 75.8631 71.02621 76.50391 72.69922C 76.7908 73.42972 77.0777 74.16021 77.37329 74.91284C 78 77 78 77 78 81C 80.97 81 83.94 81 87 81C 87 84.96 87 88.92 87 93C 81.39 93 75.78 93 70 93C 69.58114 91.88963 69.16227 90.77927 68.73071 89.635254C 67.17938 85.52368 65.62665 81.41264 64.07349 77.30176C 63.4009 75.52098 62.7287 73.74005 62.056885 71.958984C 61.092308 69.40196 60.12637 66.84547 59.160156 64.28906C 58.859085 63.490055 58.558014 62.691048 58.247818 61.86783C 56.75748 57.87681 56.75748 57.87681 55 54C 53.35 53.67 51.7 53.34 50 53C 50 67.19 50 81.38 50 96C 52.64 96 55.28 96 58 96C 58 99.96 58 103.92 58 108C 49.09 108 40.18 108 31 108C 31 104.04 31 100.08 31 96C 33.31 96 35.62 96 38 96C 38 81.81 38 67.62 38 53C 32.06 53 26.12 53 20 53C 20 62.24 20 71.48 20 81C 22.64 81 25.28 81 28 81C 28 84.96 28 88.92 28 93C 18.76 93 9.52 93 0 93C 0 89.04 0 85.08 0 81C 2.64 81 5.28 81 8 81C 8 58.23 8 35.46 8 12C 5.36 12 2.72 12 0 12C 0 8.04 0 4.08 0 0z" stroke="none" fill="#F9FBFB" fill-rule="nonzero" />
    <path transform="matrix(1 0 0 1 76 63)"  d="M0 0C 5.9980597 -0.1611419 11.988557 -0.30032015 17.98706 -0.38452148C 20.02508 -0.41962907 22.062925 -0.46732864 24.100342 -0.5280762C 27.037386 -0.6134262 29.972094 -0.65278417 32.910156 -0.68359375C 33.814598 -0.71972275 34.719044 -0.75585175 35.650894 -0.79307556C 40.65763 -0.79615235 43.387165 -0.20875418 47.07251 3.3103027C 50.31523 6.8638806 50.94536 9.635112 50.875 14.5C 50.619972 19.178585 50.324547 22.746042 47.3125 26.4375C 42.315548 30.48462 36.062958 29.574385 30 29C 30 26.36 30 23.72 30 21C 32.64 21 35.28 21 38 21C 38 17.04 38 13.08 38 9C 29.09 9 20.18 9 11 9C 11 12.96 11 16.92 11 21C 13.31 21 15.62 21 18 21C 18 23.64 18 26.28 18 29C 12.06 29 6.12 29 0 29C 0 19.43 0 9.86 0 0z" stroke="none" fill="#186194" fill-rule="nonzero" />
    <path transform="matrix(1 0 0 1 76 104)"  d="M0 0C 5.94 0 11.88 0 18 0C 18 14.19 18 28.38 18 43C 15.36 43 12.72 43 10 43C 9.67 43.99 9.34 44.98 9 46C 8.34 46 7.68 46 7 46C 6.67 45.34 6.34 44.68 6 44C 5.34 44 4.68 44 4 44C 4 43.01 4 42.02 4 41C 5.32 41 6.64 41 8 41C 8 36.71 8 32.42 8 28C 5.36 28 2.72 28 0 28C 0 18.76 0 9.52 0 0z" stroke="none" fill="#094271" fill-rule="nonzero" />
    <path transform="matrix(1 0 0 1 77 64)"  d="M0 0C 11.88 0 23.76 0 36 0C 36.495 1.485 36.495 1.485 37 3C 28.09 3 19.18 3 10 3C 18.25 3.33 26.5 3.66 35 4C 35 4.99 35 5.98 35 7C 26.42 7 17.84 7 9 7C 9 11.29 9 15.58 9 20C 11.64 20 14.28 20 17 20C 17 22.31 17 24.62 17 27C 11.39 27 5.78 27 0 27C 0 18.09 0 9.18 0 0z" stroke="none" fill="#03568B" fill-rule="nonzero" />
    <path transform="matrix(1 0 0 1 89 110)"  d="M0 0C 0.33 0 0.66 0 1 0C 1.33 1.98 1.66 3.96 2 6C 2.66 5.67 3.32 5.34 4 5C 4.33 15.56 4.66 26.12 5 37C 2.36 37 -0.28 37 -3 37C -3.33 37.99 -3.66 38.98 -4 40C -4.66 40 -5.32 40 -6 40C -6.33 39.34 -6.66 38.68 -7 38C -7.66 38 -8.32 38 -9 38C -9 37.01 -9 36.02 -9 35C -7.68 35 -6.36 35 -5 35C -5 31.04 -5 27.08 -5 23C -4.34 23.33 -3.68 23.66 -3 24C -2.34 23.67 -1.68 23.34 -1 23C -0.67 15.41 -0.34 7.82 0 0z" stroke="none" fill="#003967" fill-rule="nonzero" />
    <path transform="matrix(1 0 0 1 116 66)"  d="M0 0C 0.33 0.66 0.66 1.32 1 2C 2.9898596 2.3893204 4.9919953 2.7188795 7 3C 7.99 3.33 8.98 3.66 10 4C 11.029863 18.990229 11.029863 18.990229 7.8125 22.9375C 3.1359067 26.572334 -3.435077 25.445854 -9 25C -9 23.02 -9 21.04 -9 19C -7.02 19 -5.04 19 -3 19C -3 19.66 -3 20.32 -3 21C -2.278125 20.484375 -1.55625 19.96875 -0.8125 19.4375C 2.4195366 17.78557 3.6160831 17.936483 7 19C 7 18.34 7 17.68 7 17C 7.66 17 8.32 17 9 17C 9 16.01 9 15.02 9 14C 8.34 14 7.68 14 7 14C 6.67 14.66 6.34 15.32 6 16C 5.01 16 4.02 16 3 16C 3 15.34 3 14.68 3 14C 2.01 14 1.02 14 0 14C 0 11.36 0 8.72 0 6C 0.99 6 1.98 6 3 6C 2.505 5.566875 2.01 5.13375 1.5 4.6875C 0 3 0 3 0 0z" stroke="none" fill="#286390" fill-rule="nonzero" />
    <path transform="matrix(1 0 0 1 81 76)"  d="M0 0C 0.33 1.32 0.66 2.64 1 4C 1.66 4 2.32 4 3 4C 3.33 3.34 3.66 2.68 4 2C 5 3 5 3 5.0625 5.5625C 5.041875 6.366875 5.02125 7.17125 5 8C 7.64 8 10.28 8 13 8C 13 10.31 13 12.62 13 15C 7.39 15 1.78 15 -4 15C -4 10.71 -4 6.42 -4 2C -3.34 2 -2.68 2 -2 2C -2 2.66 -2 3.32 -2 4C -1.34 4 -0.68 4 0 4C 0 2.68 0 1.36 0 0z" stroke="none" fill="#044E81" fill-rule="nonzero" />
    <path transform="matrix(1 0 0 1 121 48)"  d="M0 0C 2.97 0 5.94 0 9 0C 9 0.99 9 1.98 9 3C 10.32 3.33 11.64 3.66 13 4C 13.99 8.455 13.99 8.455 15 13C 16.32 13 17.64 13 19 13C 18 16 18 16 17 17C 10.248597 11.350867 10.248597 11.350867 8.799438 9.305542C 6.120812 5.880336 4.069793 4.215727 -0.2566986 3.343277C -4.372056 3.093153 -8.43821 3.055136 -12.558594 3.0976562C -14.073188 3.0882626 -15.587766 3.0757997 -17.10231 3.0604095C -21.069534 3.0282774 -25.035599 3.0375907 -29.002869 3.0557861C -33.05868 3.0669706 -37.1142 3.038615 -41.16992 3.0136719C -49.11352 2.9706023 -57.056335 2.9713526 -65 3C -65 2.67 -65 2.34 -65 2C -43.55 2 -22.1 2 0 2C 0 1.34 0 0.68 0 0z" stroke="none" fill="#3F80AD" fill-rule="nonzero" />
    <path transform="matrix(1 0 0 1 116 70)"  d="M0 0C 0 3.3 0 6.6 0 10C 0.99 10 1.98 10 3 10C 3 10.66 3 11.32 3 12C 3.66 12 4.32 12 5 12C 5.33 11.34 5.66 10.68 6 10C 6.99 10 7.98 10 9 10C 9 10.99 9 11.98 9 13C 8.34 13 7.68 13 7 13C 7 13.66 7 14.32 7 15C 6.01 15.33 5.02 15.66 4 16C 4 15.34 4 14.68 4 14C 3.21625 14.495 2.4325 14.99 1.625 15.5C -1 17 -1 17 -3 17C -3 16.34 -3 15.68 -3 15C -4.98 15 -6.96 15 -9 15C -9 16.98 -9 18.96 -9 21C -5.04 21 -1.08 21 3 21C 3 21.33 3 21.66 3 22C -1.29 22 -5.58 22 -10 22C -10 19.36 -10 16.72 -10 14C -7.36 14 -4.72 14 -2 14C -2 10.04 -2 6.08 -2 2C -10.91 2 -19.82 2 -29 2C -29 5.96 -29 9.92 -29 14C -29.33 14 -29.66 14 -30 14C -30 9.71 -30 5.42 -30 1C -25.750034 0.83239573 -21.500032 0.6658768 -17.25 0.5C -16.043438 0.4523047 -14.836875 0.40460938 -13.59375 0.35546875C -11.853516 0.28779298 -11.853516 0.28779298 -10.078125 0.21875C -8.475659 0.1559082 -8.475659 0.1559082 -6.8408203 0.09179688C -4.561531 0.01814505 -2.2804787 0 0 0z" stroke="none" fill="#37719C" fill-rule="nonzero" />
    <path transform="matrix(1 0 0 1 84 133)"  d="M0 0C 0.66 0.33 1.32 0.66 2 1C 2.66 0.67 3.32 0.34 4 0C 6.5661664 3.8492494 6.5509768 6.4349303 7 11C 7.99 11 8.98 11 10 11C 10 11.99 10 12.98 10 14C 7.36 14 4.72 14 2 14C 1.67 14.99 1.34 15.98 1 17C 0.34 17 -0.32 17 -1 17C -1.33 16.34 -1.66 15.68 -2 15C -2.66 15 -3.32 15 -4 15C -4 14.01 -4 13.02 -4 12C -2.68 12 -1.36 12 0 12C 0 8.04 0 4.08 0 0z" stroke="none" fill="#04335E" fill-rule="nonzero" />
    <path transform="matrix(1 0 0 1 116 66)"  d="M0 0C 0.33 0.66 0.66 1.32 1 2C 2.9914055 2.3813329 4.9927907 2.713256 7 3C 7.66 3.33 8.32 3.66 9 4C 9 7.3 9 10.6 9 14C 8.34 14 7.68 14 7 14C 6.67 14.66 6.34 15.32 6 16C 5.01 16 4.02 16 3 16C 3 15.34 3 14.68 3 14C 2.01 14 1.02 14 0 14C 0 11.36 0 8.72 0 6C 0.99 6 1.98 6 3 6C 2.505 5.566875 2.01 5.13375 1.5 4.6875C 0 3 0 3 0 0z" stroke="none" fill="#045389" fill-rule="nonzero" />
    <path transform="matrix(1 0 0 1 198 0)"  d="M0 0C 0.33 0 0.66 0 1 0C 1 29.04 1 58.08 1 88C 0.67 88 0.34 88 0 88C 0 76.45 0 64.9 0 53C -0.66 53 -1.32 53 -2 53C -1.8392348 52.277588 -1.6784695 51.555172 -1.5128326 50.810867C -1.0285674 48.15658 -0.84442127 45.719383 -0.79467773 43.026123C -0.77473253 42.065506 -0.75478727 41.104885 -0.7342377 40.115158C -0.7175252 39.091022 -0.7008127 38.066887 -0.68359375 37.01172C -0.6524221 35.424217 -0.6524221 35.424217 -0.6206207 33.80464C -0.55536896 30.432325 -0.49635363 27.059933 -0.4375 23.6875C -0.3942916 21.39778 -0.35067657 19.108065 -0.30664062 16.81836C -0.19971259 11.212319 -0.09790137 5.6062045 0 0z" stroke="none" fill="#0E6398" fill-rule="nonzero" />
    <path transform="matrix(1 0 0 1 144 62)"  d="M0 0C 0 3.3 0 6.6 0 10C -1.32 10 -2.64 10 -4 10C -4.33 16.27 -4.66 22.54 -5 29C -5.66 28.67 -6.32 28.34 -7 28C -7 18.76 -7 9.52 -7 0C -3 -1 -3 -1 0 0z" stroke="none" fill="#0D5A8E" fill-rule="nonzero" />
    <path transform="matrix(1 0 0 1 111 105)"  d="M0 0C 2.2415187 2.2415187 2.9630132 4.006711 4.125 6.9375C 4.4782033 7.812773 4.831406 8.688046 5.1953125 9.589844C 6 12 6 12 6 15C 3.69 15 1.38 15 -1 15C -1 12.36 -1 9.72 -1 7C -1.66 7 -2.32 7 -3 7C -3 5.02 -3 3.04 -3 1C -2.01 0.67 -1.02 0.34 0 0z" stroke="none" fill="#0E4976" fill-rule="nonzero" />
    <path transform="matrix(1 0 0 1 107 105)"  d="M0 0C 1.32 0.33 2.64 0.66 4 1C 3.01 1 2.02 1 1 1C 1 2.98 1 4.96 1 7C 1.66 7 2.32 7 3 7C 3 9.64 3 12.28 3 15C 3.78375 14.814375 4.5675 14.62875 5.375 14.4375C 8 14 8 14 10 15C 9.8125 17.375 9.8125 17.375 9 20C 6.4375 21.3125 6.4375 21.3125 4 22C 2.015625 20.578125 2.015625 20.578125 0 18C -0.50627387 14.905438 -0.37696403 11.875268 -0.25 8.75C -0.23195313 7.909531 -0.21390624 7.0690627 -0.1953125 6.203125C -0.14830798 4.134926 -0.07656724 2.0673156 0 0z" stroke="none" fill="#023D6D" fill-rule="nonzero" />
    <path transform="matrix(1 0 0 1 199 77)"  d="M0 0C 0.33 0 0.66 0 1 0C 1 18.15 1 36.3 1 55C 0.01 55.495 0.01 55.495 -1 56C -2.125 48.375 -2.125 48.375 -1 45C -1.66 44.67 -2.32 44.34 -3 44C -2.01 43.505 -2.01 43.505 -1 43C -0.67 28.81 -0.34 14.62 0 0z" stroke="none" fill="#013862" fill-rule="nonzero" />
    <path transform="matrix(1 0 0 1 140 72)"  d="M0 0C 0.99 0 1.98 0 3 0C 3 5.61 3 11.22 3 17C 1.68 17 0.36 17 -1 17C -1.0272118 15.104247 -1.0464914 13.20838 -1.0625 11.3125C -1.0741016 10.256758 -1.0857031 9.201015 -1.0976562 8.113281C -1.0086542 5.2758975 -0.6493984 2.756108 0 0z" stroke="none" fill="#065085" fill-rule="nonzero" />
    <path transform="matrix(1 0 0 1 55 51)"  d="M0 0C 0.33 0 0.66 0 1 0C 1 3.96 1 7.92 1 12C 3.31 12 5.62 12 8 12C 8 18.6 8 25.2 8 32C 7.67 32 7.34 32 7 32C 6.9510155 31.289726 6.9020314 30.579453 6.8515625 29.847656C 6.776797 28.928555 6.702031 28.009453 6.625 27.0625C 6.520586 25.687716 6.520586 25.687716 6.4140625 24.285156C 6.2091017 23.154003 6.2091017 23.154003 6 22C 5.34 21.67 4.68 21.34 4 21C 4 18.36 4 15.72 4 13C 2.68 13 1.36 13 0 13C 0 8.71 0 4.42 0 0z" stroke="none" fill="#0B5A8F" fill-rule="nonzero" />
    <path transform="matrix(1 0 0 1 107 85)"  d="M0 0C 1.98 0 3.96 0 6 0C 6 0.99 6 1.98 6 3C 6.61875 3.12375 7.2375 3.2475 7.875 3.375C 10 4 10 4 12 6C 8.04 6 4.08 6 0 6C 0 4.02 0 2.04 0 0z" stroke="none" fill="#024B7F" fill-rule="nonzero" />
    <path transform="matrix(1 0 0 1 113 64)"  d="M0 0C 3.1875 -0.375 3.1875 -0.375 7 0C 9.140349 1.8118802 10.389883 3.6580117 12 6C 11.01 6 10.02 6 9 6C 8.67 5.34 8.34 4.68 8 4C 6.35 4.33 4.7 4.66 3 5C 3.99 5.33 4.98 5.66 6 6C 6 6.66 6 7.32 6 8C 5.01 8 4.02 8 3 8C 0 2.25 0 2.25 0 0z" stroke="none" fill="#0C5D91" fill-rule="nonzero" />
    <path transform="matrix(1 0 0 1 129 113)"  d="M0 0C 2.8672469 0.5734494 3.8614514 0.8614515 6 3C 5.625 5.625 5.625 5.625 5 8C 4.01 8.33 3.02 8.66 2 9C 0.5017894 5.629026 0 3.7955787 0 0z" stroke="none" fill="#084270" fill-rule="nonzero" />
    <path transform="matrix(1 0 0 1 118 151)"  d="M0 0C 0.6666667 2.6666667 1.3333334 5.3333335 2 8C 1.01 8.495 1.01 8.495 0 9C -0.33 8.34 -0.66 7.68 -1 7C -1.99 7.495 -1.99 7.495 -3 8C -3 5.69 -3 3.38 -3 1C -2.01 0.67 -1.02 0.34 0 0z" stroke="none" fill="#012C55" fill-rule="nonzero" />
    <path transform="matrix(1 0 0 1 131 56)"  d="M0 0C 0.7425 0.639375 1.485 1.27875 2.25 1.9375C 4.711112 3.783334 6.0346694 4.560692 9 5C 8 8 8 8 7 9C 5.8246 8.073473 4.6598945 7.133366 3.5 6.1875C 2.5254688 5.4043946 2.5254688 5.4043946 1.53125 4.6054688C 0 3 0 3 0 0z" stroke="none" fill="#1E6A9C" fill-rule="nonzero" />
    <path transform="matrix(1 0 0 1 121 48)"  d="M0 0C 2.97 0 5.94 0 9 0C 8.34 1.32 7.68 2.64 7 4C 4.69 3.34 2.38 2.68 0 2C 0 1.34 0 0.68 0 0z" stroke="none" fill="#035E97" fill-rule="nonzero" />
    <path transform="matrix(1 0 0 1 107 144)"  d="M0 0C 1.98 0 3.96 0 6 0C 6.33 0.99 6.66 1.98 7 3C 4.69 3 2.38 3 0 3C 0 2.01 0 1.02 0 0z" stroke="none" fill="#0C365F" fill-rule="nonzero" />
    <path transform="matrix(1 0 0 1 111 105)"  d="M0 0C 2 2 2 2 2 5C 1.34 5 0.68 5 0 5C 0 4.34 0 3.68 0 3C -0.66 3 -1.32 3 -2 3C -2.33 4.32 -2.66 5.64 -3 7C -3 5.02 -3 3.04 -3 1C -2.01 0.67 -1.02 0.34 0 0z" stroke="none" fill="#174D7C" fill-rule="nonzero" />
</g>
</svg>