<?xml version="1.0" standalone="no"?>
<!DOCTYPE svg PUBLIC "-//W3C//DTD SVG 20010904//EN"
 "http://www.w3.org/TR/2001/REC-SVG-20010904/DTD/svg10.dtd">
<svg version="1.0" xmlns="http://www.w3.org/2000/svg"
 width="40.000000pt" height="40.000000pt" viewBox="0 0 40.000000 40.000000"
 preserveAspectRatio="xMidYMid meet">
<metadata>
Created by potrace 1.16, written by Peter Selinger 2001-2019
</metadata>
<g transform="translate(0.000000,40.000000) scale(0.011494,-0.011236)"
fill="#000000" stroke="none">
<path d="M10 1775 l0 -1775 1735 0 1735 0 0 1775 0 1775 -1735 0 -1735 0 0
-1775z m2807 543 c-3 -931 -3 -944 -25 -1038 -55 -235 -131 -410 -242 -553
-175 -226 -420 -390 -733 -492 -94 -30 -91 -30 -175 -4 -505 161 -845 500
-962 959 -48 192 -50 233 -50 1180 l0 890 1095 0 1096 0 -4 -942z"/>
<path d="M722 2273 c3 -888 4 -910 25 -1003 96 -422 336 -706 753 -893 65 -30
204 -77 224 -77 33 0 193 60 300 113 163 79 270 158 385 281 185 196 295 463
321 774 5 64 10 476 10 915 l0 797 -1010 0 -1011 0 3 -907z m1823 779 l50 -17
-3 -55 c-4 -83 -6 -85 -48 -59 -45 27 -167 38 -214 19 -48 -20 -87 -72 -100
-134 -22 -109 12 -202 90 -244 59 -31 152 -28 222 8 27 13 50 21 53 19 2 -3 6
-32 7 -64 l3 -59 -50 -19 c-113 -43 -265 -30 -355 29 -130 86 -167 301 -77
451 77 129 252 181 422 125z m-1565 -189 c0 -215 7 -257 46 -294 22 -21 35
-24 94 -24 59 0 72 3 94 24 39 37 46 79 46 294 l0 197 70 0 70 0 0 -227 c0
-208 -2 -230 -21 -269 -56 -117 -195 -168 -358 -133 -64 14 -108 43 -146 99
l-30 45 -3 243 -3 242 70 0 71 0 0 -197z m908 167 c47 -27 66 -55 77 -111 8
-44 -18 -112 -51 -134 l-25 -16 32 -22 c54 -37 73 -71 73 -130 0 -65 -23 -110
-72 -142 -54 -35 -110 -44 -264 -45 l-138 0 0 316 0 316 163 -4 c151 -3 165
-5 205 -28z m-585 -714 c91 -35 164 -35 254 1 56 22 85 26 163 27 81 1 106 -3
172 -28 68 -25 87 -28 150 -23 47 3 91 13 123 28 42 20 65 24 150 23 84 0 111
-5 168 -27 37 -15 81 -27 97 -27 l30 0 0 -76 0 -76 -42 7 c-24 4 -63 16 -88
27 -31 14 -75 22 -140 25 -87 5 -103 2 -188 -26 -115 -39 -149 -39 -262 -1
-68 23 -109 30 -165 30 -56 0 -97 -7 -165 -30 -120 -40 -184 -38 -280 8 -56
27 -239 24 -306 -5 -28 -12 -70 -25 -93 -29 l-41 -7 0 77 0 76 28 0 c15 1 65
14 112 31 75 26 95 29 170 25 59 -3 105 -12 153 -30z m481 -626 c20 -146 42
-300 49 -343 l12 -77 51 87 c288 492 318 542 322 539 3 -3 9 23 -123 -559 -15
-65 -25 -120 -23 -122 1 -2 91 82 198 185 107 104 196 187 197 186 1 -1 -44
-118 -101 -259 -63 -156 -97 -252 -87 -244 49 35 177 132 181 137 14 15 133
100 136 97 5 -5 -21 -80 -46 -134 -11 -24 -20 -46 -20 -49 0 -17 -98 -198
-142 -260 -97 -141 -258 -269 -446 -356 -218 -100 -201 -97 -324 -48 -340 136
-525 302 -671 601 -30 62 -98 241 -93 246 2 3 206 -148 256 -190 8 -7 29 -22
46 -35 l32 -22 -49 123 c-27 67 -55 136 -63 152 -7 17 -19 46 -26 65 -7 19
-26 66 -42 103 -16 38 -28 70 -26 72 2 2 57 -48 123 -112 245 -237 288 -278
282 -267 -10 17 -157 687 -152 692 1 2 16 -21 32 -50 16 -29 74 -129 129 -223
55 -93 124 -212 154 -263 29 -51 55 -91 57 -89 2 3 19 123 39 268 19 145 44
338 57 429 l22 165 12 -90 c6 -49 28 -209 47 -355z m-489 375 c60 -23 81 -26
150 -23 46 2 94 11 113 20 17 9 46 19 63 23 30 7 31 6 25 -21 -3 -16 -8 -50
-12 -76 -5 -37 -11 -49 -28 -53 -11 -4 -37 -14 -56 -22 -19 -9 -64 -18 -100
-20 -54 -4 -81 0 -158 26 -125 42 -205 42 -322 1 -46 -17 -94 -30 -107 -30
-22 0 -23 3 -23 75 l0 75 33 0 c17 1 50 8 72 16 131 51 233 53 350 9z m1188 0
c37 -14 81 -25 97 -25 l30 0 0 -76 0 -77 -45 6 c-25 4 -67 16 -93 28 -32 15
-74 23 -132 26 -76 5 -95 2 -180 -27 -112 -38 -189 -38 -282 1 -54 22 -57 26
-63 64 -4 22 -9 55 -12 74 -6 33 -5 33 26 26 17 -4 46 -14 64 -23 19 -10 64
-18 110 -20 65 -4 91 0 150 21 101 36 103 36 187 32 48 -3 100 -13 143 -30z
m-1307 -255 c6 -19 14 -51 18 -71 l6 -36 -82 -6 c-54 -3 -107 -14 -151 -31
-37 -14 -81 -26 -98 -26 l-30 0 3 72 3 73 45 6 c25 4 63 14 85 24 43 18 124
34 165 31 19 -1 28 -9 36 -36z m1289 8 c28 -11 70 -23 95 -27 l45 -6 3 -73 3
-72 -30 0 c-17 0 -61 12 -98 26 -44 17 -97 28 -150 31 -54 4 -83 10 -83 18 0
13 30 116 37 128 8 13 123 -4 178 -25z m-858 -48 c-8 -74 -18 -94 -54 -109
-66 -27 -81 -21 -124 48 -21 36 -39 67 -39 70 0 3 24 7 53 8 29 1 75 10 102
21 28 11 54 20 59 21 5 1 6 -26 3 -59z m293 39 c30 -12 81 -22 112 -22 56 -2
57 -2 43 -22 -9 -11 -27 -44 -42 -72 -15 -29 -32 -53 -38 -53 -22 0 -104 32
-113 43 -9 11 -28 147 -20 147 2 0 28 -9 58 -21z"/>
<path d="M1670 2886 l0 -76 51 0 c69 0 109 28 109 75 0 44 -29 64 -104 72
l-56 6 0 -77z"/>
<path d="M1670 2625 l0 -85 64 0 c82 0 116 23 116 79 0 20 -6 44 -12 53 -18
21 -72 38 -124 38 l-44 0 0 -85z"/>
</g>
</svg>
