<?xml version="1.0" standalone="no"?>
<!DOCTYPE svg PUBLIC "-//W3C//DTD SVG 1.0//EN" "http://www.w3.org/TR/2001/REC-SVG-20010904/DTD/svg10.dtd">
<svg xmlns="http://www.w3.org/2000/svg" xmlns:xlink="http://www.w3.org/1999/xlink" id="body_1" width="50" height="50">

<g transform="matrix(0.14044943 0 0 0.14044943 0.56179774 -0)">
    <path transform="matrix(1 0 0 1 0 0)"  d="M0 0C 114.84 0 229.68 0 348 0C 348 117.48 348 234.96 348 356C 233.16 356 118.32 356 0 356C 0 238.52 0 121.04 0 0z" stroke="none" fill="#020D41" fill-rule="nonzero" />
    <path transform="matrix(1 0 0 1 63 30)"  d="M0 0C 72.27 0 144.54 0 219 0C 219.06187 29.473125 219.12375 58.94625 219.1875 89.3125C 219.21481 98.589 219.24213 107.86549 219.27026 117.423096C 219.28381 128.82654 219.28381 128.82654 219.28633 134.17961C 219.28911 137.88634 219.30026 141.59293 219.31673 145.2996C 219.33754 150.05081 219.34343 154.80183 219.33922 159.55309C 219.3401 161.28235 219.3459 163.01161 219.35765 164.74084C 219.45682 180.0729 217.73442 195.12688 213.625 209.9375C 213.41005 210.72487 213.1951 211.51225 212.97363 212.32349C 209.62616 224.23146 204.22969 234.66046 198.00293 245.28076C 197.09775 246.83244 196.22275 248.40164 195.35156 249.97266C 194.90555 250.64168 194.45953 251.3107 194 252C 193.34 252 192.68 252 192 252C 191.75508 252.72446 191.51016 253.44891 191.25781 254.19531C 180.32362 278.57654 144.48004 293.54312 121.36719 302.39062C 112.65153 305.49243 106.36548 305.5542 97.75 302.3125C 97.0013 302.03848 96.252594 301.7645 95.4812 301.48218C 89.51404 299.26642 83.72311 296.78775 78 294C 76.91461 293.49985 75.829216 292.9997 74.71094 292.48438C 61.590744 286.25882 50.483364 278.03983 40 268C 39.154373 267.19562 38.30875 266.39124 37.4375 265.5625C 36.633125 264.7169 35.82875 263.87125 35 263C 34.334843 262.3065 33.66969 261.61298 32.984375 260.89844C 8.147781 234.2878 -0.38622615 198.34578 -0.22705078 162.79541C -0.2264367 160.98148 -0.22670747 159.16754 -0.2277813 157.3536C -0.22822906 152.53731 -0.21671715 147.72112 -0.20256042 142.90483C -0.19109055 138.36974 -0.19062985 133.83467 -0.18920898 129.29956C -0.17875364 116.07469 -0.15083112 102.849846 -0.125 89.625C -0.08375 60.04875 -0.0425 30.4725 0 0z" stroke="none" fill="#020C3F" fill-rule="nonzero" />
    <path transform="matrix(1 0 0 1 172 143)"  d="M0 0C 0.33 0 0.66 0 1 0C 1.1555737 1.1443652 1.3111475 2.2887304 1.4714355 3.4677734C 3.1744428 15.99096 4.882228 28.51349 6.5946045 41.0354C 6.8584566 42.964912 7.1222143 44.894436 7.3858643 46.823975C 8.084649 51.937115 8.785701 57.049934 9.490631 62.16223C 9.704433 63.715103 9.917473 65.26808 10.12973 66.82117C 10.424239 68.97482 10.721517 71.128075 11.019531 73.28125C 11.185578 74.48846 11.351626 75.69566 11.522705 76.93945C 11.899012 79.35243 12.347624 81.65043 13 84C 17.828623 76.02383 22.592072 68.01469 27.25 59.9375C 31.456785 52.653515 35.68062 45.379845 39.9375 38.125C 40.481163 37.19164 41.024826 36.258278 41.58496 35.29663C 44.144405 30.946772 46.677773 26.826565 50 23C 48.651226 32.05669 46.733692 40.929104 44.65747 49.839355C 44.116463 52.16164 43.58005 54.484947 43.04492 56.808594C 42.34534 59.845673 41.644547 62.882465 40.942383 65.918945C 39.781395 70.94293 38.631042 75.969185 37.5 81C 37.340317 81.69754 37.180634 82.39509 37.016113 83.11377C 36.4092 85.82418 36 88.20921 36 91C 36.413628 90.5759 36.827255 90.151794 37.253418 89.71484C 39.122078 87.804726 40.998394 85.90231 42.875 84C 43.525978 83.33227 44.176952 82.66453 44.847656 81.97656C 45.47285 81.344925 46.098045 80.71328 46.742188 80.0625C 47.318237 79.475975 47.894287 78.88945 48.487793 78.28516C 50 77 50 77 52 77C 52.26039 76.40188 52.520782 75.80375 52.789062 75.1875C 54.09066 72.83623 55.29819 71.68248 57.375 70C 63.269207 65.03016 68.59383 59.48727 74 54C 75 56 75 56 74.23071 58.372314C 73.60797 59.852844 73.60797 59.852844 72.97266 61.36328C 72.51351 62.468895 72.05436 63.57451 71.5813 64.71362C 71.08009 65.90125 70.57889 67.08888 70.0625 68.3125C 69.04491 70.76223 68.02892 73.212555 67.015625 75.66406C 66.760216 76.280266 66.50481 76.89648 66.24165 77.53136C 63.82614 83.37718 61.546547 89.27036 59.3125 95.1875C 58.9742 96.08316 58.635902 96.97881 58.287354 97.90161C 57.522224 99.9334 56.760647 101.96653 56 104C 56.819843 103.38512 57.639687 102.77023 58.484375 102.13672C 61.65625 99.75781 64.828125 97.37891 68 95C 68.74766 94.40832 69.495316 93.81664 70.265625 93.20703C 72 92 72 92 74 92C 74 91.34 74 90.68 74 90C 76.1377 88.37323 78.267555 86.86021 80.5 85.375C 81.12004 84.954765 81.74008 84.53453 82.37891 84.10156C 83.91518 83.06163 85.45708 82.03003 87 81C 88 83 88 83 87.21484 85.58203C 72.89593 121.7953 53.83799 147.79459 17.97998 163.90771C 1.4605801 171.05391 1.4605801 171.05391 -5.3632812 168.66406C -7.020523 168.00288 -8.670015 167.32204 -10.3125 166.625C -11.630486 166.07742 -11.630486 166.07742 -12.975098 165.5188C -35.5668 155.94574 -55.530373 143.0756 -69 122C -69.47695 121.30262 -69.9539 120.60523 -70.44531 119.88672C -74.22117 114.0785 -76.946754 107.84137 -79.6875 101.5C -80.06826 100.62174 -80.44901 99.74349 -80.84131 98.83862C -83.31299 92.99384 -85.30324 87.11393 -87 81C -81.69262 83.769066 -77.26508 87.10511 -72.64453 90.90234C -69.173 93.65598 -65.529915 96.11098 -61.835938 98.55469C -61.23008 99.03164 -60.624218 99.50859 -60 100C -60 100.66 -60 101.32 -60 102C -58.35 102.66 -56.7 103.32 -55 104C -58.24288 95.20491 -61.580036 86.45327 -65.0625 77.75C -65.400795 76.90357 -65.7391 76.05714 -66.08765 75.18506C -67.57374 71.484436 -69.07479 67.79381 -70.65625 64.13281C -71.120316 63.057735 -71.58437 61.982655 -72.0625 60.875C -72.46597 59.96492 -72.86945 59.054844 -73.28516 58.117188C -73.52106 57.418514 -73.75695 56.719845 -74 56C -73.67 55.34 -73.34 54.68 -73 54C -63 64 -63 64 -60.38672 66.64453C -58.4772 68.529045 -56.561413 70.288635 -54.5 72C -51.486313 74.50193 -48.753296 77.21417 -46 80C -45.035816 80.9655 -44.070957 81.93033 -43.10547 82.89453C -40.403645 85.59635 -37.701824 88.29818 -35 91C -37.787354 75.692055 -40.926838 60.525364 -44.588135 45.40576C -46.373344 37.97237 -47.85967 30.56001 -49 23C -45.9982 25.842756 -44.197815 29.015858 -42.25 32.625C -38.199764 39.986084 -33.912262 47.187466 -29.5625 54.375C -23.469725 64.458885 -17.62005 74.64588 -12 85C -10.235576 76.21537 -9.097762 67.38192 -7.997162 58.49637C -6.1987343 43.998177 -4.2731442 29.52216 -2.1875 15.0625C -2.0211353 13.908991 -2.0211353 13.908991 -1.8514099 12.732178C -1.2382603 8.487534 -0.6210483 4.243497 0 0z" stroke="none" fill="#FDFDFE" fill-rule="nonzero" />
    <path transform="matrix(1 0 0 1 63 30)"  d="M0 0C 72.27 0 144.54 0 219 0C 219.06187 29.473125 219.12375 58.94625 219.1875 89.3125C 219.21481 98.589 219.24213 107.86549 219.27026 117.423096C 219.28381 128.82654 219.28381 128.82654 219.28633 134.17961C 219.28911 137.88634 219.30026 141.59293 219.31673 145.2996C 219.33754 150.05081 219.34343 154.80183 219.33922 159.55309C 219.3401 161.28235 219.3459 163.01161 219.35765 164.74084C 219.45682 180.0729 217.73442 195.12688 213.625 209.9375C 213.41005 210.72487 213.1951 211.51225 212.97363 212.32349C 209.62616 224.23146 204.22969 234.66046 198.00293 245.28076C 197.09775 246.83244 196.22275 248.40164 195.35156 249.97266C 194.90555 250.64168 194.45953 251.3107 194 252C 193.34 252 192.68 252 192 252C 191.75508 252.72446 191.51016 253.44891 191.25781 254.19531C 180.32362 278.57654 144.48004 293.54312 121.36719 302.39062C 112.65153 305.49243 106.36548 305.5542 97.75 302.3125C 97.0013 302.03848 96.252594 301.7645 95.4812 301.48218C 89.51404 299.26642 83.72311 296.78775 78 294C 76.91461 293.49985 75.829216 292.9997 74.71094 292.48438C 61.590744 286.25882 50.483364 278.03983 40 268C 39.154373 267.19562 38.30875 266.39124 37.4375 265.5625C 36.633125 264.7169 35.82875 263.87125 35 263C 34.334843 262.3065 33.66969 261.61298 32.984375 260.89844C 8.147781 234.2878 -0.38622615 198.34578 -0.22705078 162.79541C -0.2264367 160.98148 -0.22670747 159.16754 -0.2277813 157.3536C -0.22822906 152.53731 -0.21671715 147.72112 -0.20256042 142.90483C -0.19109055 138.36974 -0.19062985 133.83467 -0.18920898 129.29956C -0.17875364 116.07469 -0.15083112 102.849846 -0.125 89.625C -0.08375 60.04875 -0.0425 30.4725 0 0zM9 8C 8.938125 36.483124 8.87625 64.96625 8.8125 94.3125C 8.785188 103.27576 8.757876 112.239006 8.729736 121.47388C 8.719697 129.57271 8.719697 129.57271 8.713669 137.67155C 8.7108965 141.25328 8.699743 144.83487 8.683273 148.41655C 8.662442 153.0087 8.656572 157.60063 8.660783 162.19283C 8.6599045 163.86346 8.654108 165.53412 8.642355 167.20473C 8.425228 199.61563 17.3166 228.86638 38 254C 38.45504 254.5891 38.91008 255.1782 39.378906 255.78516C 52.72185 272.47333 73.45991 283.64844 93.03467 291.23633C 94.7907 291.91867 96.53854 292.622 98.28516 293.32812C 99.69088 293.87726 99.69088 293.87726 101.125 294.4375C 101.91133 294.74557 102.697655 295.05368 103.50781 295.3711C 109.75522 296.94763 115.03538 295.6847 120.9375 293.5C 121.672585 293.233 122.40768 292.966 123.16504 292.69092C 135.89024 287.9278 147.62302 281.378 159 274C 160.66676 272.95587 160.66676 272.95587 162.36719 271.89062C 163.23602 271.26672 164.10484 270.64282 165 270C 165 269.34 165 268.68 165 268C 165.59425 267.72028 166.18852 267.44055 166.80078 267.15234C 174.54036 263.097 179.7708 255.77652 185 249C 185.60973 248.21754 186.21945 247.43507 186.84766 246.6289C 211.00343 213.99934 211.33005 175.40807 211.20256 136.64069C 211.19101 132.55005 211.19063 128.45943 211.18921 124.368774C 211.17879 112.475 211.15086 100.58125 211.125 88.6875C 211.08376 62.060623 211.0425 35.43375 211 8C 144.34 8 77.68 8 9 8z" stroke="none" fill="#FAFBFB" fill-rule="nonzero" />
    <path transform="matrix(1 0 0 1 153 50)"  d="M0 0C 33.36842 0 33.36842 0 39.875 5.375C 43.22158 9.509012 44.223076 12.223655 43.8125 17.5C 43.279713 21.267118 42.394787 23.96046 40 27C 39.01 27.66 38.02 28.32 37 29C 37.831444 29.653555 37.831444 29.653555 38.679688 30.320312C 46.234295 36.530685 46.234295 36.530685 47 42C 47.05454 48.04307 46.03749 52.30778 42 57C 30.233114 66.62745 14.18658 63 0 63C 0 42.21 0 21.42 0 0z" stroke="none" fill="#FDFDFD" fill-rule="nonzero" />
    <path transform="matrix(1 0 0 1 133 125)"  d="M0 0C 8.464252 2.8214176 17.566895 1.4250175 25.597656 -2.0273438C 36.666393 -6.5088325 48.21731 -3.9138334 59 0C 67.46426 2.8214176 76.566895 1.4250175 84.59766 -2.0273438C 94.52685 -6.047455 105.07903 -4.392139 114.89844 -1.0234375C 119.21423 0.4006667 123.53079 1.1995449 128 2C 128 6.95 128 11.9 128 17C 121.88751 16.529808 117.53534 15.554772 112 13C 101.97574 10.418797 91.251564 11.1391735 81.5625 14.5C 71.908104 17.821344 66.09166 17.812246 56.4375 14.5C 43.93271 10.266607 32.971336 10.932728 20.599854 15.198242C 11.69256 18.233435 5.6952677 17.747053 -3.0625 14.5C -15.9484215 9.7611885 -28.263287 10.916153 -40.86328 15.90625C -44 17 -44 17 -49 17C -49 12.05 -49 7.1 -49 2C -47.040627 1.566875 -45.08125 1.13375 -43.0625 0.6875C -39.091877 -0.21102424 -35.342464 -1.1841046 -31.5625 -2.6875C -20.875822 -6.360435 -10.242392 -3.7671425 0 0z" stroke="none" fill="#FDFDFD" fill-rule="nonzero" />
    <path transform="matrix(1 0 0 1 84 50)"  d="M0 0C 4.62 0 9.24 0 14 0C 14.014583 1.205354 14.029165 2.410708 14.044189 3.652588C 14.102384 8.146209 14.179614 12.639339 14.262451 17.132568C 14.295602 19.073242 14.323664 21.014011 14.346436 22.954834C 14.380164 25.752848 14.432488 28.550007 14.488281 31.347656C 14.494671 32.20835 14.501061 33.06905 14.507645 33.955826C 14.63802 39.35891 15.461685 43.203163 18 48C 21.738516 51.51194 25.723143 51.44615 30.625 51.29297C 33.719234 50.911278 35.622055 50.00639 38 48C 41.564217 42.653675 41.19371 36.995758 41.316406 30.761719C 41.33719 29.88095 41.357967 29.000185 41.37938 28.092728C 41.44454 25.291061 41.503605 22.489304 41.5625 19.6875C 41.605717 17.783194 41.649334 15.878897 41.69336 13.974609C 41.800186 9.316498 41.901546 4.6582956 42 0C 46.62 0 51.24 0 56 0C 56.09926 6.404577 56.171654 12.8087015 56.219727 19.213867C 56.239777 21.390379 56.267025 23.566837 56.301758 25.743164C 56.350563 28.880995 56.373035 32.01811 56.390625 35.15625C 56.41127 36.121155 56.431915 37.086056 56.453186 38.0802C 56.455578 45.3687 54.84105 50.56276 50.17578 56.20703C 42.128902 63.140503 34.99929 64.5544 24.4375 64.28125C 16.036552 63.5939 9.729787 61.32032 4 55C 0.805314 50.52744 -0.12845334 46.757015 -0.11352539 41.323242C -0.11341209 39.942265 -0.11341209 39.942265 -0.11329651 38.533386C -0.10813522 37.547836 -0.10297394 36.56229 -0.09765625 35.546875C -0.0962413 34.531517 -0.09482635 33.51616 -0.09336853 32.47003C -0.08777516 29.229992 -0.07522385 25.990019 -0.0625 22.75C -0.05748414 20.552084 -0.05292139 18.354168 -0.04882812 16.15625C -0.0378079 10.770806 -0.02054778 5.385415 0 0z" stroke="none" fill="#FDFEFE" fill-rule="nonzero" />
    <path transform="matrix(1 0 0 1 260 53)"  d="M0 0C -0.11347619 1.9798608 -0.2410935 3.958916 -0.375 5.9375C -0.44460937 7.0396485 -0.51421875 8.141797 -0.5859375 9.277344C -0.7225781 10.17582 -0.8592188 11.074297 -1 12C -1.99 12.495 -1.99 12.495 -3 13C -4.6820865 12.02616 -6.3473816 11.023049 -8 10C -13.927508 8.010814 -22.255621 7.68367 -28.144531 9.753906C -33.628006 13.293871 -35.65446 17.789827 -37 24C -37.60453 31.49616 -36.435806 37.98729 -31.625 43.9375C -25.62158 48.654472 -19.386133 48.80508 -12 48C -9.456124 47.14585 -7.20152 46.141598 -4.8398438 44.875C -3 44 -3 44 0 44C 0.495 49.94 0.495 49.94 1 56C -10.4794 61.311363 -22.430376 63.412678 -34.757812 59.027344C -42.71156 55.38303 -47.432575 49.9563 -51 42C -54.37221 31.267288 -53.734802 20.637192 -48.78125 10.5078125C -44.007988 2.6319299 -37.752827 -1.4738513 -28.9375 -3.875C -19.160046 -5.94639 -8.611448 -5.7409654 0 0z" stroke="none" fill="#FBFBFC" fill-rule="nonzero" />
    <path transform="matrix(1 0 0 1 251.91797 150.3164)"  d="M0 0C 2.9252818 0.96045834 6.034055 1.2481686 9.082031 1.6835938C 9.082031 6.6335936 9.082031 11.583593 9.082031 16.683594C 3.5243192 16.361408 -0.9201555 15.821027 -6.0429688 13.621094C -17.089695 9.395061 -27.420145 11.167139 -38.193604 14.88208C -50.14217 18.913012 -58.684917 16.176815 -69.91797 11.683594C -70.57797 6.733594 -71.23797 1.7835938 -71.91797 -3.3164062C -64.91797 -2.3164062 -64.91797 -2.3164062 -61.464844 -0.78125C -53.53467 2.4938757 -43.693623 1.7066151 -35.73047 -1.2539062C -34.911915 -1.6135547 -34.09336 -1.9732031 -33.25 -2.34375C -22.77433 -6.7129993 -10.089105 -4.3954787 0 0z" stroke="none" fill="#FCFDFD" fill-rule="nonzero" />
    <path transform="matrix(1 0 0 1 132 150)"  d="M0 0C 9.038336 3.0127785 18.981552 1.2695533 27.609375 -2.125C 30 -3 30 -3 33 -3C 32.34 1.95 31.68 6.9 31 12C 18.714893 16.914043 10.166907 18.95035 -2.75 14.5C -15.412978 10.174655 -26.331602 11.036517 -38.695312 15.90625C -42 17 -42 17 -48 17C -48 12.05 -48 7.1 -48 2C -46.35 1.731875 -44.7 1.46375 -43 1.1875C -39.404335 0.54129577 -36.08429 -0.2169761 -32.6875 -1.5625C -21.239733 -6.0251894 -11.273734 -3.9371104 0 0z" stroke="none" fill="#FDFDFD" fill-rule="nonzero" />
    <path transform="matrix(1 0 0 1 228 172)"  d="M0 0C 8.258507 -0.4340237 14.916503 -0.16879722 22.582031 3.046875C 25.736671 4.2903843 28.645239 4.635352 32 5C 33 6 33 6 33.097656 9.160156C 33.086056 10.447929 33.07445 11.735703 33.0625 13.0625C 33.05348 14.352852 33.044453 15.643203 33.035156 16.972656C 33.023556 17.97168 33.01195 18.970703 33 20C 28.506907 20.164581 25.277287 19.983377 21.1875 18.125C 13.432545 15.062119 5.237173 14.688697 -3 14C -2.6902454 12.228684 -2.3770957 10.457962 -2.0625 8.6875C -1.8884766 7.7013674 -1.7144531 6.7152343 -1.5351562 5.6992188C -1 3 -1 3 0 0z" stroke="none" fill="#FCFDFD" fill-rule="nonzero" />
    <path transform="matrix(1 0 0 1 110.1875 171.9375)"  d="M0 0C 1.2723047 0.00902344 2.5446093 0.01804688 3.8554688 0.02734375C 5.319199 0.04474609 5.319199 0.04474609 6.8125 0.0625C 7.317212 1.8319961 7.816107 3.6031523 8.3125 5.375C 8.590938 6.3611326 8.869375 7.3472657 9.15625 8.363281C 9.8125 11.0625 9.8125 11.0625 9.8125 14.0625C 8.975899 14.076679 8.139297 14.090859 7.2773438 14.105469C -1.184575 14.452192 -7.856315 15.985342 -15.714844 19.003906C -19.1875 20.0625 -19.1875 20.0625 -26.1875 20.0625C -26.1875 15.4425 -26.1875 10.8225 -26.1875 6.0625C -25.067305 5.713164 -23.94711 5.363828 -22.792969 5.0039062C -21.320309 4.544286 -19.847652 4.0846496 -18.375 3.625C -17.637012 3.3949022 -16.899023 3.1648047 -16.138672 2.9277344C -10.409668 1.1390408 -6.028199 -0.05530458 0 0z" stroke="none" fill="#FDFDFD" fill-rule="nonzero" />
    <path transform="matrix(1 0 0 1 167 85)"  d="M0 0C 6.6252866 -0.27227205 11.164457 -0.22817276 17 3C 18.567005 6.134009 18.851646 9.631551 18 13C 15.262348 15.92628 13.674617 16.920912 9.667969 17.390625C 6.4453125 17.260416 3.2226562 17.130209 0 17C 0 11.39 0 5.78 0 0z" stroke="none" fill="#010B3F" fill-rule="nonzero" />
    <path transform="matrix(1 0 0 1 161 173)"  d="M0 0C 0.18944341 5.399137 0.09487171 9.912455 -2 15C -5.6448474 18.124155 -9.305911 18.539795 -14 19C -15.152645 17.254478 -16.296873 15.503398 -17.4375 13.75C -18.075586 12.775469 -18.713673 11.800938 -19.371094 10.796875C -20.757614 8.416183 -21.546581 6.682197 -22 4C -20.669687 4.12375 -20.669687 4.12375 -19.3125 4.25C -14.215289 4.291952 -9.579698 2.4613957 -4.7929688 0.875C -2 0 -2 0 0 0z" stroke="none" fill="#FAFBFB" fill-rule="nonzero" />
    <path transform="matrix(1 0 0 1 184 173)"  d="M0 0C 0.59425783 0.20496094 1.1885157 0.40992188 1.8007812 0.62109375C 7.486736 2.4692502 12.781893 3.4330106 18.75 3.7890625C 21 4 21 4 23 5C 22.590078 5.675469 22.180157 6.3509374 21.757812 7.046875C 21.218985 7.938906 20.680157 8.830937 20.125 9.75C 19.324492 11.072578 19.324492 11.072578 18.507812 12.421875C 17.244034 14.582741 16.085012 16.745705 15 19C 10.074665 18.507467 5.979312 18.05389 2 15C 0.22138125 10.106671 -0.09263202 5.1688666 0 0z" stroke="none" fill="#FBFCFC" fill-rule="nonzero" />
    <path transform="matrix(1 0 0 1 167 60)"  d="M0 0C 5.985559 -0.27207088 9.770248 -0.2685949 15 3C 16 4 16 4 16.375 7.3125C 16 11 16 11 14.1875 13.4375C 9.379757 15.794236 5.320287 15.256399 0 15C 0 10.05 0 5.1 0 0z" stroke="none" fill="#040E41" fill-rule="nonzero" />
</g>
</svg>