<?xml version="1.0" encoding="UTF-8"?>
<svg xmlns="http://www.w3.org/2000/svg" xmlns:xlink="http://www.w3.org/1999/xlink" width="50px" height="50px" viewBox="0 0 50 50" version="1.1">
<defs>
<filter id="alpha" filterUnits="objectBoundingBox" x="0%" y="0%" width="100%" height="100%">
  <feColorMatrix type="matrix" in="SourceGraphic" values="0 0 0 0 1 0 0 0 0 1 0 0 0 0 1 0 0 0 1 0"/>
</filter>
<mask id="mask0">
  <g filter="url(#alpha)">
<rect x="0" y="0" width="50" height="50" style="fill:rgb(0%,0%,0%);fill-opacity:0.933333;stroke:none;"/>
  </g>
</mask>
<clipPath id="clip1">
  <rect x="0" y="0" width="50" height="50"/>
</clipPath>
<g id="surface5" clip-path="url(#clip1)">
<path style=" stroke:none;fill-rule:evenodd;fill:rgb(99.215686%,99.215686%,98.823529%);fill-opacity:1;" d="M 21.921875 -0.09375 C 23.910156 -0.09375 25.902344 -0.09375 27.890625 -0.09375 C 40.265625 2.207031 47.605469 9.546875 49.90625 21.921875 C 49.90625 23.910156 49.90625 25.902344 49.90625 27.890625 C 47.605469 40.265625 40.265625 47.605469 27.890625 49.90625 C 25.902344 49.90625 23.910156 49.90625 21.921875 49.90625 C 9.546875 47.605469 2.207031 40.265625 -0.09375 27.890625 C -0.09375 25.902344 -0.09375 23.910156 -0.09375 21.921875 C 2.207031 9.546875 9.546875 2.207031 21.921875 -0.09375 Z M 21.921875 -0.09375 "/>
</g>
</defs>
<g id="surface1">
<use xlink:href="#surface5" mask="url(#mask0)"/>
<path style=" stroke:none;fill-rule:evenodd;fill:rgb(67.45098%,67.45098%,63.137255%);fill-opacity:1;" d="M 39.273438 9.234375 C 39.273438 9.359375 39.273438 9.484375 39.273438 9.609375 C 37.78125 9.609375 36.289062 9.609375 34.792969 9.609375 C 34.792969 11.039062 34.792969 12.46875 34.792969 13.898438 C 34.671875 13.898438 34.546875 13.898438 34.421875 13.898438 C 34.421875 12.46875 34.421875 11.039062 34.421875 9.609375 C 32.929688 9.609375 31.4375 9.609375 29.945312 9.609375 C 29.945312 11.039062 29.945312 12.46875 29.945312 13.898438 C 29.820312 13.898438 29.695312 13.898438 29.570312 13.898438 C 29.570312 13.835938 29.570312 13.773438 29.570312 13.710938 C 29.570312 12.34375 29.570312 10.976562 29.570312 9.609375 C 28.078125 9.609375 26.585938 9.609375 25.09375 9.609375 C 25.09375 10.664062 25.09375 11.722656 25.09375 12.78125 C 24.96875 12.71875 24.84375 12.65625 24.71875 12.59375 C 24.71875 11.597656 24.71875 10.601562 24.71875 9.609375 C 23.226562 9.609375 21.734375 9.609375 20.242188 9.609375 C 20.242188 9.484375 20.242188 9.359375 20.242188 9.234375 C 21.734375 9.234375 23.226562 9.234375 24.71875 9.234375 C 24.71875 7.742188 24.71875 6.25 24.71875 4.757812 C 23.226562 4.757812 21.734375 4.757812 20.242188 4.757812 C 20.242188 4.632812 20.242188 4.507812 20.242188 4.382812 C 21.734375 4.382812 23.226562 4.382812 24.71875 4.382812 C 24.84375 -0.589844 24.96875 -0.589844 25.09375 4.382812 C 26.585938 4.382812 28.078125 4.382812 29.570312 4.382812 C 29.695312 0.15625 29.820312 0.15625 29.945312 4.382812 C 31.4375 4.382812 32.929688 4.382812 34.421875 4.382812 C 34.546875 2.144531 34.671875 2.144531 34.792969 4.382812 C 39.023438 4.507812 39.023438 4.632812 34.792969 4.757812 C 34.792969 6.25 34.792969 7.742188 34.792969 9.234375 C 36.289062 9.234375 37.78125 9.234375 39.273438 9.234375 Z M 39.273438 9.234375 "/>
<path style=" stroke:none;fill-rule:evenodd;fill:rgb(71.764706%,71.764706%,68.235294%);fill-opacity:1;" d="M 15.207031 4.382812 C 15.207031 4.507812 15.207031 4.632812 15.207031 4.757812 C 10.726562 4.632812 10.726562 4.507812 15.207031 4.382812 Z M 15.207031 4.382812 "/>
<path style=" stroke:none;fill-rule:evenodd;fill:rgb(60.784314%,60.784314%,55.686275%);fill-opacity:1;" d="M 20.242188 4.382812 C 20.242188 4.507812 20.242188 4.632812 20.242188 4.757812 C 20.242188 6.25 20.242188 7.742188 20.242188 9.234375 C 20.242188 9.359375 20.242188 9.484375 20.242188 9.609375 C 20.242188 10.167969 20.242188 10.726562 20.242188 11.289062 C 20.179688 11.289062 20.117188 11.289062 20.054688 11.289062 C 20.054688 10.726562 20.054688 10.167969 20.054688 9.609375 C 18.5 9.609375 16.945312 9.609375 15.390625 9.609375 C 15.390625 9.980469 15.390625 10.355469 15.390625 10.726562 C 15.328125 10.726562 15.265625 10.726562 15.207031 10.726562 C 15.207031 10.664062 15.207031 10.601562 15.207031 10.542969 C 15.207031 10.230469 15.207031 9.917969 15.207031 9.609375 C 15.207031 9.484375 15.207031 9.359375 15.207031 9.234375 C 15.207031 7.742188 15.207031 6.25 15.207031 4.757812 C 15.207031 4.632812 15.207031 4.507812 15.207031 4.382812 C 15.265625 2.144531 15.328125 2.144531 15.390625 4.382812 C 16.945312 4.382812 18.5 4.382812 20.054688 4.382812 C 20.117188 0.15625 20.179688 0.15625 20.242188 4.382812 Z M 20.242188 4.382812 "/>
<path style=" stroke:none;fill-rule:evenodd;fill:rgb(99.215686%,99.215686%,99.215686%);fill-opacity:1;" d="M 15.390625 4.757812 C 16.945312 4.757812 18.5 4.757812 20.054688 4.757812 C 20.054688 6.25 20.054688 7.742188 20.054688 9.234375 C 18.5 9.234375 16.945312 9.234375 15.390625 9.234375 C 15.390625 7.742188 15.390625 6.25 15.390625 4.757812 Z M 15.390625 4.757812 "/>
<path style=" stroke:none;fill-rule:evenodd;fill:rgb(99.607843%,100%,99.607843%);fill-opacity:1;" d="M 20.242188 4.757812 C 21.734375 4.757812 23.226562 4.757812 24.71875 4.757812 C 24.71875 6.25 24.71875 7.742188 24.71875 9.234375 C 23.226562 9.234375 21.734375 9.234375 20.242188 9.234375 C 20.242188 7.742188 20.242188 6.25 20.242188 4.757812 Z M 20.242188 4.757812 "/>
<path style=" stroke:none;fill-rule:evenodd;fill:rgb(99.607843%,100%,99.607843%);fill-opacity:1;" d="M 25.09375 4.757812 C 26.585938 4.757812 28.078125 4.757812 29.570312 4.757812 C 29.570312 6.25 29.570312 7.742188 29.570312 9.234375 C 28.078125 9.234375 26.585938 9.234375 25.09375 9.234375 C 25.09375 7.742188 25.09375 6.25 25.09375 4.757812 Z M 25.09375 4.757812 "/>
<path style=" stroke:none;fill-rule:evenodd;fill:rgb(99.607843%,100%,99.607843%);fill-opacity:1;" d="M 29.945312 4.757812 C 31.4375 4.757812 32.929688 4.757812 34.421875 4.757812 C 34.421875 6.25 34.421875 7.742188 34.421875 9.234375 C 32.929688 9.234375 31.4375 9.234375 29.945312 9.234375 C 29.945312 7.742188 29.945312 6.25 29.945312 4.757812 Z M 29.945312 4.757812 "/>
<path style=" stroke:none;fill-rule:evenodd;fill:rgb(72.941176%,72.941176%,69.803922%);fill-opacity:1;" d="M 10.355469 9.234375 C 10.355469 9.359375 10.355469 9.484375 10.355469 9.609375 C 4.882812 9.484375 4.882812 9.359375 10.355469 9.234375 Z M 10.355469 9.234375 "/>
<path style=" stroke:none;fill-rule:evenodd;fill:rgb(66.27451%,66.27451%,61.960784%);fill-opacity:1;" d="M 15.207031 9.234375 C 15.207031 9.359375 15.207031 9.484375 15.207031 9.609375 C 13.652344 9.609375 12.097656 9.609375 10.542969 9.609375 C 10.542969 9.980469 10.542969 10.355469 10.542969 10.726562 C 10.480469 10.726562 10.417969 10.726562 10.355469 10.726562 C 10.355469 10.355469 10.355469 9.980469 10.355469 9.609375 C 10.355469 9.484375 10.355469 9.359375 10.355469 9.234375 C 10.417969 4.261719 10.480469 4.261719 10.542969 9.234375 C 12.097656 9.234375 13.652344 9.234375 15.207031 9.234375 Z M 15.207031 9.234375 "/>
<path style=" stroke:none;fill-rule:evenodd;fill:rgb(99.215686%,99.215686%,98.823529%);fill-opacity:1;" d="M 15.207031 9.609375 C 15.207031 9.917969 15.207031 10.230469 15.207031 10.542969 C 13.640625 10.488281 12.085938 10.550781 10.542969 10.726562 C 10.542969 10.355469 10.542969 9.980469 10.542969 9.609375 C 12.097656 9.609375 13.652344 9.609375 15.207031 9.609375 Z M 15.207031 9.609375 "/>
<path style=" stroke:none;fill-rule:evenodd;fill:rgb(98.431373%,98.431373%,96.862745%);fill-opacity:1;" d="M 20.054688 11.289062 C 18.515625 10.992188 16.960938 10.808594 15.390625 10.726562 C 15.390625 10.355469 15.390625 9.980469 15.390625 9.609375 C 16.945312 9.609375 18.5 9.609375 20.054688 9.609375 C 20.054688 10.167969 20.054688 10.726562 20.054688 11.289062 Z M 20.054688 11.289062 "/>
<path style=" stroke:none;fill-rule:evenodd;fill:rgb(99.607843%,99.607843%,98.431373%);fill-opacity:1;" d="M 20.242188 9.609375 C 21.734375 9.609375 23.226562 9.609375 24.71875 9.609375 C 24.71875 10.601562 24.71875 11.597656 24.71875 12.59375 C 23.242188 12.160156 21.75 11.789062 20.242188 11.472656 C 20.242188 11.410156 20.242188 11.347656 20.242188 11.289062 C 20.242188 10.726562 20.242188 10.167969 20.242188 9.609375 Z M 20.242188 9.609375 "/>
<path style=" stroke:none;fill-rule:evenodd;fill:rgb(99.607843%,99.607843%,98.823529%);fill-opacity:1;" d="M 29.570312 13.710938 C 28.039062 13.578125 26.546875 13.265625 25.09375 12.78125 C 25.09375 11.722656 25.09375 10.664062 25.09375 9.609375 C 26.585938 9.609375 28.078125 9.609375 29.570312 9.609375 C 29.570312 10.976562 29.570312 12.34375 29.570312 13.710938 Z M 29.570312 13.710938 "/>
<path style=" stroke:none;fill-rule:evenodd;fill:rgb(99.607843%,99.607843%,98.431373%);fill-opacity:1;" d="M 34.421875 13.898438 C 32.929688 14.148438 31.4375 14.148438 29.945312 13.898438 C 29.945312 12.46875 29.945312 11.039062 29.945312 9.609375 C 31.4375 9.609375 32.929688 9.609375 34.421875 9.609375 C 34.421875 11.039062 34.421875 12.46875 34.421875 13.898438 Z M 34.421875 13.898438 "/>
<path style=" stroke:none;fill-rule:evenodd;fill:rgb(99.215686%,99.607843%,99.215686%);fill-opacity:1;" d="M 39.273438 9.609375 C 39.273438 10.042969 39.273438 10.480469 39.273438 10.914062 C 39.273438 10.976562 39.273438 11.039062 39.273438 11.101562 C 38.507812 11.945312 37.699219 12.753906 36.847656 13.527344 C 36.15625 13.621094 35.472656 13.746094 34.792969 13.898438 C 34.792969 12.46875 34.792969 11.039062 34.792969 9.609375 C 36.289062 9.609375 37.78125 9.609375 39.273438 9.609375 Z M 39.273438 9.609375 "/>
<path style=" stroke:none;fill-rule:evenodd;fill:rgb(52.156863%,52.54902%,45.882353%);fill-opacity:1;" d="M 40.953125 9.234375 C 40.890625 9.421875 40.765625 9.546875 40.578125 9.609375 C 40.25 9.429688 39.875 9.367188 39.457031 9.421875 C 39.457031 9.855469 39.457031 10.292969 39.457031 10.726562 C 39.457031 10.789062 39.457031 10.851562 39.457031 10.914062 C 39.398438 10.914062 39.335938 10.914062 39.273438 10.914062 C 39.273438 10.480469 39.273438 10.042969 39.273438 9.609375 C 39.273438 9.484375 39.273438 9.359375 39.273438 9.234375 C 39.335938 4.261719 39.398438 4.261719 39.457031 9.234375 C 39.957031 9.234375 40.453125 9.234375 40.953125 9.234375 Z M 40.953125 9.234375 "/>
<path style=" stroke:none;fill-rule:evenodd;fill:rgb(88.627451%,89.411765%,87.45098%);fill-opacity:1;" d="M 40.578125 9.609375 C 40.265625 10.042969 39.894531 10.417969 39.457031 10.726562 C 39.457031 10.292969 39.457031 9.855469 39.457031 9.421875 C 39.875 9.367188 40.25 9.429688 40.578125 9.609375 Z M 40.578125 9.609375 "/>
<path style=" stroke:none;fill-rule:evenodd;fill:rgb(32.156863%,48.235294%,36.078431%);fill-opacity:1;" d="M 44.125 10.355469 C 44.125 11.597656 44.125 12.84375 44.125 14.085938 C 42.570312 14.085938 41.011719 14.085938 39.457031 14.085938 C 39.457031 13.027344 39.457031 11.972656 39.457031 10.914062 C 39.457031 10.851562 39.457031 10.789062 39.457031 10.726562 C 39.894531 10.417969 40.265625 10.042969 40.578125 9.609375 C 40.765625 9.546875 40.890625 9.421875 40.953125 9.234375 C 41.382812 8.867188 41.820312 8.492188 42.257812 8.117188 C 42.949219 8.804688 43.570312 9.550781 44.125 10.355469 Z M 44.125 10.355469 "/>
<path style=" stroke:none;fill-rule:evenodd;fill:rgb(75.294118%,83.921569%,18.823529%);fill-opacity:1;" d="M 15.207031 10.542969 C 15.207031 10.601562 15.207031 10.664062 15.207031 10.726562 C 15.207031 11.847656 15.207031 12.964844 15.207031 14.085938 C 13.652344 14.085938 12.097656 14.085938 10.542969 14.085938 C 10.542969 12.964844 10.542969 11.847656 10.542969 10.726562 C 12.085938 10.550781 13.640625 10.488281 15.207031 10.542969 Z M 15.207031 10.542969 "/>
<path style=" stroke:none;fill-rule:evenodd;fill:rgb(75.294118%,83.921569%,18.431373%);fill-opacity:1;" d="M 15.390625 10.726562 C 16.960938 10.808594 18.515625 10.992188 20.054688 11.289062 C 20.054688 12.21875 20.054688 13.152344 20.054688 14.085938 C 18.5 14.085938 16.945312 14.085938 15.390625 14.085938 C 15.390625 12.964844 15.390625 11.847656 15.390625 10.726562 Z M 15.390625 10.726562 "/>
<path style=" stroke:none;fill-rule:evenodd;fill:rgb(32.941176%,49.803922%,37.647059%);fill-opacity:1;" d="M 44.308594 10.542969 C 45.191406 11.621094 45.941406 12.804688 46.546875 14.085938 C 45.800781 14.085938 45.054688 14.085938 44.308594 14.085938 C 44.308594 12.902344 44.308594 11.722656 44.308594 10.542969 Z M 44.308594 10.542969 "/>
<path style=" stroke:none;fill-rule:evenodd;fill:rgb(32.54902%,49.019608%,36.862745%);fill-opacity:1;" d="M 39.273438 11.101562 C 39.273438 12.097656 39.273438 13.089844 39.273438 14.085938 C 38.339844 14.085938 37.40625 14.085938 36.472656 14.085938 C 36.597656 13.898438 36.722656 13.710938 36.847656 13.527344 C 37.699219 12.753906 38.507812 11.945312 39.273438 11.101562 Z M 39.273438 11.101562 "/>
<path style=" stroke:none;fill-rule:evenodd;fill:rgb(76.078431%,84.705882%,18.431373%);fill-opacity:1;" d="M 20.242188 11.472656 C 21.75 11.789062 23.242188 12.160156 24.71875 12.59375 C 24.71875 13.089844 24.71875 13.589844 24.71875 14.085938 C 23.226562 14.085938 21.734375 14.085938 20.242188 14.085938 C 20.242188 13.214844 20.242188 12.34375 20.242188 11.472656 Z M 20.242188 11.472656 "/>
<path style=" stroke:none;fill-rule:evenodd;fill:rgb(76.470588%,85.098039%,20.392157%);fill-opacity:1;" d="M 5.503906 12.035156 C 5.503906 12.71875 5.503906 13.402344 5.503906 14.085938 C 4.757812 14.085938 4.011719 14.085938 3.265625 14.085938 C 3.539062 12.878906 4.285156 12.195312 5.503906 12.035156 Z M 5.503906 12.035156 "/>
<path style=" stroke:none;fill-rule:evenodd;fill:rgb(77.254902%,85.882353%,20%);fill-opacity:1;" d="M 25.09375 12.78125 C 26.546875 13.265625 28.039062 13.578125 29.570312 13.710938 C 29.570312 13.773438 29.570312 13.835938 29.570312 13.898438 C 28.113281 14.085938 26.621094 14.148438 25.09375 14.085938 C 25.09375 13.652344 25.09375 13.214844 25.09375 12.78125 Z M 25.09375 12.78125 "/>
<path style=" stroke:none;fill-rule:evenodd;fill:rgb(79.215686%,87.058824%,26.666667%);fill-opacity:1;" d="M 36.847656 13.527344 C 36.722656 13.710938 36.597656 13.898438 36.472656 14.085938 C 35.875 14.144531 35.316406 14.082031 34.792969 13.898438 C 35.472656 13.746094 36.15625 13.621094 36.847656 13.527344 Z M 36.847656 13.527344 "/>
<path style=" stroke:none;fill-rule:evenodd;fill:rgb(56.470588%,60.392157%,25.882353%);fill-opacity:1;" d="M 24.71875 12.59375 C 24.84375 12.65625 24.96875 12.71875 25.09375 12.78125 C 25.09375 13.214844 25.09375 13.652344 25.09375 14.085938 C 26.621094 14.148438 28.113281 14.085938 29.570312 13.898438 C 29.695312 13.898438 29.820312 13.898438 29.945312 13.898438 C 31.4375 14.148438 32.929688 14.148438 34.421875 13.898438 C 34.546875 13.898438 34.671875 13.898438 34.792969 13.898438 C 35.316406 14.082031 35.875 14.144531 36.472656 14.085938 C 36.472656 14.148438 36.472656 14.210938 36.472656 14.273438 C 36.347656 14.273438 36.226562 14.273438 36.101562 14.273438 C 35.613281 14.222656 35.144531 14.285156 34.703125 14.457031 C 34.609375 14.953125 34.578125 15.449219 34.609375 15.953125 C 34.609375 16.074219 34.546875 16.136719 34.421875 16.136719 C 34.421875 15.578125 34.421875 15.019531 34.421875 14.457031 C 32.929688 14.457031 31.4375 14.457031 29.945312 14.457031 C 29.945312 15.953125 29.945312 17.445312 29.945312 18.9375 C 29.820312 18.9375 29.695312 18.9375 29.570312 18.9375 C 29.570312 17.445312 29.570312 15.953125 29.570312 14.457031 C 28.078125 14.457031 26.585938 14.457031 25.09375 14.457031 C 25.09375 15.953125 25.09375 17.445312 25.09375 18.9375 C 24.96875 18.9375 24.84375 18.9375 24.71875 18.9375 C 24.71875 17.445312 24.71875 15.953125 24.71875 14.457031 C 23.226562 14.457031 21.734375 14.457031 20.242188 14.457031 C 20.242188 14.335938 20.242188 14.210938 20.242188 14.085938 C 21.734375 14.085938 23.226562 14.085938 24.71875 14.085938 C 24.71875 13.589844 24.71875 13.089844 24.71875 12.59375 Z M 24.71875 12.59375 "/>
<path style=" stroke:none;fill-rule:evenodd;fill:rgb(70.196078%,78.431373%,20.784314%);fill-opacity:1;" d="M 36.101562 14.273438 C 35.742188 14.945312 35.242188 15.503906 34.609375 15.953125 C 34.578125 15.449219 34.609375 14.953125 34.703125 14.457031 C 35.144531 14.285156 35.613281 14.222656 36.101562 14.273438 Z M 36.101562 14.273438 "/>
<path style=" stroke:none;fill-rule:evenodd;fill:rgb(31.764706%,48.235294%,36.078431%);fill-opacity:1;" d="M 36.101562 14.273438 C 36.226562 14.273438 36.347656 14.273438 36.472656 14.273438 C 37.40625 14.273438 38.339844 14.273438 39.273438 14.273438 C 39.273438 15.828125 39.273438 17.382812 39.273438 18.9375 C 37.71875 18.9375 36.164062 18.9375 34.609375 18.9375 C 34.667969 18.027344 34.605469 17.160156 34.421875 16.324219 C 34.421875 16.261719 34.421875 16.199219 34.421875 16.136719 C 34.546875 16.136719 34.609375 16.074219 34.609375 15.953125 C 35.242188 15.503906 35.742188 14.945312 36.101562 14.273438 Z M 36.101562 14.273438 "/>
<path style=" stroke:none;fill-rule:evenodd;fill:rgb(75.686275%,83.921569%,18.823529%);fill-opacity:1;" d="M 3.265625 14.273438 C 4.011719 14.273438 4.757812 14.273438 5.503906 14.273438 C 5.503906 15.828125 5.503906 17.382812 5.503906 18.9375 C 4.121094 19.054688 2.816406 18.929688 1.585938 18.5625 C 1.894531 17.019531 2.453125 15.589844 3.265625 14.273438 Z M 3.265625 14.273438 "/>
<path style=" stroke:none;fill-rule:evenodd;fill:rgb(48.235294%,50.196078%,27.843137%);fill-opacity:1;" d="M 5.691406 11.847656 C 5.691406 12.59375 5.691406 13.339844 5.691406 14.085938 C 7.246094 14.085938 8.800781 14.085938 10.355469 14.085938 C 10.355469 12.964844 10.355469 11.847656 10.355469 10.726562 C 10.417969 10.726562 10.480469 10.726562 10.542969 10.726562 C 10.542969 11.847656 10.542969 12.964844 10.542969 14.085938 C 12.097656 14.085938 13.652344 14.085938 15.207031 14.085938 C 15.207031 12.964844 15.207031 11.847656 15.207031 10.726562 C 15.265625 10.726562 15.328125 10.726562 15.390625 10.726562 C 15.390625 11.847656 15.390625 12.964844 15.390625 14.085938 C 16.945312 14.085938 18.5 14.085938 20.054688 14.085938 C 20.054688 13.152344 20.054688 12.21875 20.054688 11.289062 C 20.117188 11.289062 20.179688 11.289062 20.242188 11.289062 C 20.242188 11.347656 20.242188 11.410156 20.242188 11.472656 C 20.242188 12.34375 20.242188 13.214844 20.242188 14.085938 C 20.242188 14.210938 20.242188 14.335938 20.242188 14.457031 C 21.734375 14.457031 23.226562 14.457031 24.71875 14.457031 C 24.71875 15.953125 24.71875 17.445312 24.71875 18.9375 C 24.84375 18.9375 24.96875 18.9375 25.09375 18.9375 C 26.585938 18.9375 28.078125 18.9375 29.570312 18.9375 C 29.695312 18.9375 29.820312 18.9375 29.945312 18.9375 C 30.378906 18.9375 30.816406 18.9375 31.25 18.9375 C 31.25 19 31.25 19.0625 31.25 19.125 C 31.042969 19.132812 30.855469 19.195312 30.691406 19.308594 C 30.492188 19.136719 30.242188 19.074219 29.945312 19.125 C 29.945312 19.308594 29.945312 19.496094 29.945312 19.683594 C 29.820312 19.683594 29.757812 19.746094 29.757812 19.871094 C 29.695312 19.871094 29.632812 19.871094 29.570312 19.871094 C 29.570312 19.621094 29.570312 19.371094 29.570312 19.125 C 28.078125 19.125 26.585938 19.125 25.09375 19.125 C 24.984375 19.898438 25.109375 20.582031 25.464844 21.175781 C 25.402344 21.332031 25.277344 21.394531 25.09375 21.363281 C 24.96875 21.363281 24.84375 21.363281 24.71875 21.363281 C 24.71875 20.617188 24.71875 19.871094 24.71875 19.125 C 23.226562 19.125 21.734375 19.125 20.242188 19.125 C 20.242188 19.929688 20.242188 20.738281 20.242188 21.546875 C 20.179688 21.546875 20.117188 21.546875 20.054688 21.546875 C 20.054688 20.738281 20.054688 19.929688 20.054688 19.125 C 18.46875 19.0625 16.914062 19.125 15.390625 19.308594 C 15.390625 19.746094 15.390625 20.179688 15.390625 20.617188 C 15.328125 20.617188 15.265625 20.617188 15.207031 20.617188 C 15.207031 20.117188 15.207031 19.621094 15.207031 19.125 C 13.742188 19.0625 12.308594 19.125 10.914062 19.308594 C 10.789062 19.246094 10.664062 19.183594 10.542969 19.125 C 10.542969 19.0625 10.542969 19 10.542969 18.9375 C 10.480469 18.9375 10.417969 18.9375 10.355469 18.9375 C 10.355469 19 10.355469 19.0625 10.355469 19.125 C 8.777344 19.039062 7.222656 19.164062 5.691406 19.496094 C 5.628906 19.496094 5.566406 19.496094 5.503906 19.496094 C 4.210938 19.128906 2.84375 19.003906 1.398438 19.125 C 1.355469 18.882812 1.417969 18.695312 1.585938 18.5625 C 2.816406 18.929688 4.121094 19.054688 5.503906 18.9375 C 5.503906 17.382812 5.503906 15.828125 5.503906 14.273438 C 4.757812 14.273438 4.011719 14.273438 3.265625 14.273438 C 3.265625 14.210938 3.265625 14.148438 3.265625 14.085938 C 4.011719 14.085938 4.757812 14.085938 5.503906 14.085938 C 5.503906 13.402344 5.503906 12.71875 5.503906 12.035156 C 5.472656 11.46875 5.503906 10.910156 5.597656 10.355469 C 5.691406 10.847656 5.722656 11.34375 5.691406 11.847656 Z M 5.691406 11.847656 "/>
<path style=" stroke:none;fill-rule:evenodd;fill:rgb(68.627451%,75.686275%,20.784314%);fill-opacity:1;" d="M 15.019531 18.9375 C 15.019531 17.445312 15.019531 15.953125 15.019531 14.457031 C 13.589844 14.457031 12.15625 14.457031 10.726562 14.457031 C 10.726562 15.953125 10.726562 17.445312 10.726562 18.9375 C 10.664062 18.9375 10.601562 18.9375 10.542969 18.9375 C 10.542969 17.382812 10.542969 15.828125 10.542969 14.273438 C 12.097656 14.273438 13.652344 14.273438 15.207031 14.273438 C 15.265625 15.863281 15.203125 17.417969 15.019531 18.9375 Z M 15.019531 18.9375 "/>
<path style=" stroke:none;fill-rule:evenodd;fill:rgb(75.686275%,84.313725%,17.647059%);fill-opacity:1;" d="M 15.019531 18.9375 C 13.589844 18.9375 12.15625 18.9375 10.726562 18.9375 C 10.726562 17.445312 10.726562 15.953125 10.726562 14.457031 C 12.15625 14.457031 13.589844 14.457031 15.019531 14.457031 C 15.019531 15.953125 15.019531 17.445312 15.019531 18.9375 Z M 15.019531 18.9375 "/>
<path style=" stroke:none;fill-rule:evenodd;fill:rgb(75.686275%,84.313725%,17.647059%);fill-opacity:1;" d="M 10.355469 14.457031 C 10.355469 15.953125 10.355469 17.445312 10.355469 18.9375 C 8.863281 18.9375 7.371094 18.9375 5.875 18.9375 C 5.875 17.445312 5.875 15.953125 5.875 14.457031 C 7.371094 14.457031 8.863281 14.457031 10.355469 14.457031 Z M 10.355469 14.457031 "/>
<path style=" stroke:none;fill-rule:evenodd;fill:rgb(66.27451%,72.54902%,21.960784%);fill-opacity:1;" d="M 10.355469 14.457031 C 8.863281 14.457031 7.371094 14.457031 5.875 14.457031 C 5.875 15.953125 5.875 17.445312 5.875 18.9375 C 5.691406 17.417969 5.628906 15.863281 5.691406 14.273438 C 7.277344 14.210938 8.832031 14.273438 10.355469 14.457031 Z M 10.355469 14.457031 "/>
<path style=" stroke:none;fill-rule:evenodd;fill:rgb(76.078431%,84.313725%,19.607843%);fill-opacity:1;" d="M 10.355469 10.726562 C 10.355469 11.847656 10.355469 12.964844 10.355469 14.085938 C 8.800781 14.085938 7.246094 14.085938 5.691406 14.085938 C 5.691406 13.339844 5.691406 12.59375 5.691406 11.847656 C 7.191406 11.269531 8.746094 10.894531 10.355469 10.726562 Z M 10.355469 10.726562 "/>
<path style=" stroke:none;fill-rule:evenodd;fill:rgb(74.901961%,83.137255%,18.431373%);fill-opacity:1;" d="M 15.390625 14.273438 C 16.886719 14.242188 18.378906 14.273438 19.871094 14.367188 C 20.050781 15.875 20.113281 17.398438 20.054688 18.9375 C 18.5 18.9375 16.945312 18.9375 15.390625 18.9375 C 15.390625 17.382812 15.390625 15.828125 15.390625 14.273438 Z M 15.390625 14.273438 "/>
<path style=" stroke:none;fill-rule:evenodd;fill:rgb(75.686275%,84.313725%,17.647059%);fill-opacity:1;" d="M 20.242188 14.457031 C 21.734375 14.457031 23.226562 14.457031 24.71875 14.457031 C 24.71875 15.953125 24.71875 17.445312 24.71875 18.9375 C 23.226562 18.9375 21.734375 18.9375 20.242188 18.9375 C 20.242188 17.445312 20.242188 15.953125 20.242188 14.457031 Z M 20.242188 14.457031 "/>
<path style=" stroke:none;fill-rule:evenodd;fill:rgb(75.686275%,84.313725%,17.647059%);fill-opacity:1;" d="M 29.570312 18.9375 C 28.078125 18.9375 26.585938 18.9375 25.09375 18.9375 C 25.09375 17.445312 25.09375 15.953125 25.09375 14.457031 C 26.585938 14.457031 28.078125 14.457031 29.570312 14.457031 C 29.570312 15.953125 29.570312 17.445312 29.570312 18.9375 Z M 29.570312 18.9375 "/>
<path style=" stroke:none;fill-rule:evenodd;fill:rgb(75.294118%,83.921569%,18.039216%);fill-opacity:1;" d="M 34.421875 16.136719 C 34.421875 16.199219 34.421875 16.261719 34.421875 16.324219 C 33.476562 17.269531 32.480469 18.140625 31.4375 18.9375 C 31.375 18.9375 31.3125 18.9375 31.25 18.9375 C 30.816406 18.9375 30.378906 18.9375 29.945312 18.9375 C 29.945312 17.445312 29.945312 15.953125 29.945312 14.457031 C 31.4375 14.457031 32.929688 14.457031 34.421875 14.457031 C 34.421875 15.019531 34.421875 15.578125 34.421875 16.136719 Z M 34.421875 16.136719 "/>
<path style=" stroke:none;fill-rule:evenodd;fill:rgb(32.156863%,48.235294%,36.078431%);fill-opacity:1;" d="M 44.125 16.511719 C 44.136719 16.59375 44.105469 16.65625 44.03125 16.699219 C 43.898438 16.421875 43.679688 16.296875 43.375 16.324219 C 43.429688 16.914062 43.335938 17.472656 43.097656 18.003906 C 43.046875 17.0625 42.796875 16.9375 42.351562 17.628906 C 42.3125 17.304688 42.21875 16.992188 42.070312 16.699219 C 41.925781 17.136719 41.769531 17.574219 41.605469 18.003906 C 41.445312 17.699219 41.257812 17.636719 41.042969 17.816406 C 40.953125 18.183594 40.921875 18.558594 40.953125 18.9375 C 40.453125 18.9375 39.957031 18.9375 39.457031 18.9375 C 39.457031 17.382812 39.457031 15.828125 39.457031 14.273438 C 41.011719 14.273438 42.570312 14.273438 44.125 14.273438 C 44.125 15.019531 44.125 15.765625 44.125 16.511719 Z M 44.125 16.511719 "/>
<path style=" stroke:none;fill-rule:evenodd;fill:rgb(37.647059%,37.647059%,29.411765%);fill-opacity:1;" d="M 45.800781 15.019531 C 45.9375 15.261719 46.09375 15.511719 46.269531 15.765625 C 46.511719 15.320312 46.699219 15.320312 46.828125 15.765625 C 46.878906 15.59375 46.972656 15.46875 47.109375 15.390625 C 50.710938 24.777344 49.3125 33.359375 42.910156 41.136719 C 36.378906 47.804688 28.511719 50.261719 19.308594 48.507812 C 10.804688 46.253906 5.085938 40.996094 2.144531 32.742188 C 2.144531 32.429688 2.144531 32.121094 2.144531 31.808594 C 2.5 31.847656 2.777344 31.722656 2.984375 31.4375 C 3.21875 31.714844 3.40625 32.027344 3.542969 32.371094 C 3.578125 31.617188 3.671875 30.871094 3.824219 30.128906 C 4.066406 30.53125 4.222656 30.96875 4.292969 31.4375 C 4.507812 30.730469 4.726562 29.980469 4.945312 29.199219 C 5.320312 29.679688 5.597656 30.238281 5.785156 30.875 C 5.882812 30.3125 6.007812 29.753906 6.15625 29.199219 C 6.34375 29.507812 6.53125 29.820312 6.714844 30.128906 C 7.035156 29.757812 7.347656 29.382812 7.648438 29.011719 C 7.863281 29.648438 8.171875 29.710938 8.582031 29.199219 C 8.691406 29.867188 8.941406 29.929688 9.328125 29.382812 C 9.507812 29.722656 9.726562 30.03125 9.980469 30.316406 C 10.101562 30.003906 10.289062 29.753906 10.542969 29.570312 C 10.726562 29.941406 10.914062 30.3125 11.101562 30.691406 C 11.351562 30.46875 11.570312 30.21875 11.753906 29.945312 C 11.925781 30.097656 12.046875 30.285156 12.125 30.503906 C 12.179688 30.214844 12.304688 29.96875 12.5 29.757812 C 12.707031 30.601562 12.863281 31.472656 12.964844 32.371094 C 13.121094 32.183594 13.277344 31.996094 13.433594 31.808594 C 13.585938 32.238281 13.710938 32.671875 13.804688 33.117188 C 13.828125 32.578125 13.953125 32.082031 14.179688 31.625 C 14.578125 32.265625 14.890625 33.074219 15.113281 34.046875 C 15.203125 33.492188 15.234375 32.933594 15.207031 32.371094 C 15.265625 32.371094 15.328125 32.371094 15.390625 32.371094 C 15.542969 32.542969 15.699219 32.730469 15.859375 32.929688 C 15.996094 32.714844 16.152344 32.714844 16.324219 32.929688 C 16.449219 32.554688 16.574219 32.183594 16.699219 31.808594 C 16.96875 32.417969 17.21875 33.039062 17.445312 33.675781 C 17.746094 31.949219 17.933594 31.949219 18.003906 33.675781 C 18.453125 33.695312 18.792969 33.507812 19.03125 33.117188 C 19.117188 33.226562 19.148438 33.351562 19.125 33.488281 C 19.089844 33.789062 19.179688 34.035156 19.402344 34.234375 C 19.460938 33.898438 19.585938 33.835938 19.777344 34.046875 C 19.8125 34.367188 19.8125 34.679688 19.777344 34.980469 C 20.339844 35.46875 20.589844 35.28125 20.523438 34.421875 C 20.585938 34.484375 20.648438 34.546875 20.707031 34.609375 C 20.796875 34.28125 20.921875 33.972656 21.082031 33.675781 C 21.144531 33.738281 21.207031 33.800781 21.269531 33.863281 C 21.359375 33.621094 21.390625 33.371094 21.363281 33.117188 C 21.316406 32.460938 21.472656 32.402344 21.828125 32.929688 C 22.027344 32.753906 22.246094 32.566406 22.480469 32.371094 C 22.839844 32.652344 23.214844 32.902344 23.601562 33.117188 C 23.71875 33.402344 23.90625 33.652344 24.160156 33.863281 C 24.402344 33.75 24.558594 33.566406 24.625 33.300781 C 24.6875 33.363281 24.75 33.425781 24.8125 33.488281 C 24.847656 32.832031 24.941406 32.210938 25.09375 31.625 C 25.226562 31.699219 25.320312 31.824219 25.375 31.996094 C 25.40625 31.367188 25.5 30.742188 25.652344 30.128906 C 26.039062 30.726562 26.378906 31.347656 26.679688 31.996094 C 26.710938 31.425781 26.804688 30.867188 26.957031 30.316406 C 27.082031 30.628906 27.207031 30.9375 27.332031 31.25 C 27.699219 30.90625 28.011719 30.535156 28.265625 30.128906 C 28.378906 30.109375 28.472656 30.046875 28.542969 29.945312 C 28.660156 30.417969 28.847656 30.851562 29.105469 31.25 C 29.195312 31.007812 29.226562 30.761719 29.199219 30.503906 C 29.382812 30.503906 29.570312 30.503906 29.757812 30.503906 C 29.707031 30.78125 29.769531 31.027344 29.945312 31.25 C 30.007812 31.15625 30.070312 31.0625 30.128906 30.96875 C 30.054688 30.535156 30.054688 30.066406 30.128906 29.570312 C 30.316406 29.570312 30.503906 29.570312 30.691406 29.570312 C 30.660156 29.828125 30.691406 30.074219 30.785156 30.316406 C 30.964844 29.964844 31.089844 29.589844 31.15625 29.199219 C 31.316406 29.492188 31.441406 29.804688 31.53125 30.128906 C 31.5625 29.636719 31.53125 29.136719 31.4375 28.636719 C 31.378906 28.1875 31.441406 27.75 31.625 27.332031 C 31.753906 27.429688 31.84375 27.554688 31.902344 27.707031 C 31.9375 27.136719 32.03125 26.574219 32.183594 26.027344 C 32.390625 26.375 32.546875 26.746094 32.648438 27.144531 C 32.683594 26.453125 32.773438 25.769531 32.929688 25.09375 C 33.078125 25.386719 33.171875 25.699219 33.207031 26.027344 C 33.472656 25.808594 33.6875 25.871094 33.863281 26.210938 C 33.988281 25.753906 34.109375 25.316406 34.234375 24.90625 C 34.359375 24.84375 34.484375 24.78125 34.609375 24.71875 C 34.585938 25.121094 34.675781 25.496094 34.886719 25.839844 C 34.976562 25.414062 35.164062 25.042969 35.449219 24.71875 C 35.574219 25.167969 35.730469 25.601562 35.914062 26.027344 C 36.089844 25.738281 36.152344 25.425781 36.101562 25.09375 C 36.242188 24.949219 36.335938 24.765625 36.378906 24.535156 C 36.417969 24.859375 36.511719 25.171875 36.660156 25.464844 C 36.84375 24.921875 36.90625 24.359375 36.847656 23.789062 C 36.90625 23.554688 37 23.554688 37.125 23.789062 C 37.1875 23.289062 37.25 22.792969 37.3125 22.292969 C 37.390625 22.210938 37.484375 22.148438 37.59375 22.109375 C 37.722656 22.679688 37.878906 23.238281 38.058594 23.789062 C 38.148438 23.609375 38.179688 23.425781 38.152344 23.226562 C 38.304688 22.828125 38.398438 22.394531 38.433594 21.921875 C 38.511719 22.007812 38.601562 22.070312 38.710938 22.109375 C 39.023438 21.859375 39.335938 21.609375 39.644531 21.363281 C 39.753906 21.402344 39.847656 21.464844 39.925781 21.546875 C 39.972656 20.847656 40.097656 20.164062 40.296875 19.496094 C 40.375 19.714844 40.5 19.902344 40.671875 20.054688 C 40.882812 19.710938 40.976562 19.339844 40.953125 18.9375 C 40.921875 18.558594 40.953125 18.183594 41.042969 17.816406 C 41.257812 17.636719 41.445312 17.699219 41.605469 18.003906 C 41.769531 17.574219 41.925781 17.136719 42.070312 16.699219 C 42.21875 16.992188 42.3125 17.304688 42.351562 17.628906 C 42.796875 16.9375 43.046875 17.0625 43.097656 18.003906 C 43.335938 17.472656 43.429688 16.914062 43.375 16.324219 C 43.679688 16.296875 43.898438 16.421875 44.03125 16.699219 C 44.105469 16.65625 44.136719 16.59375 44.125 16.511719 C 44.292969 16.644531 44.355469 16.828125 44.308594 17.070312 C 44.496094 17.070312 44.683594 17.070312 44.871094 17.070312 C 44.828125 17.289062 44.890625 17.476562 45.054688 17.628906 C 45.203125 17.402344 45.296875 17.152344 45.335938 16.882812 C 45.679688 17.132812 45.773438 17.101562 45.617188 16.792969 C 45.738281 16.730469 45.863281 16.667969 45.988281 16.605469 C 45.785156 16.355469 45.664062 16.078125 45.617188 15.765625 C 45.601562 15.492188 45.664062 15.242188 45.800781 15.019531 Z M 45.800781 15.019531 "/>
<path style=" stroke:none;fill-rule:evenodd;fill:rgb(31.764706%,48.627451%,36.078431%);fill-opacity:1;" d="M 34.421875 16.324219 C 34.421875 17.195312 34.421875 18.066406 34.421875 18.9375 C 33.425781 18.9375 32.429688 18.9375 31.4375 18.9375 C 32.480469 18.140625 33.476562 17.269531 34.421875 16.324219 Z M 34.421875 16.324219 "/>
<path style=" stroke:none;fill-rule:evenodd;fill:rgb(31.764706%,48.235294%,36.078431%);fill-opacity:1;" d="M 10.355469 19.125 C 10.355469 20.679688 10.355469 22.234375 10.355469 23.789062 C 8.800781 23.789062 7.246094 23.789062 5.691406 23.789062 C 5.691406 22.355469 5.691406 20.925781 5.691406 19.496094 C 7.222656 19.164062 8.777344 19.039062 10.355469 19.125 Z M 10.355469 19.125 "/>
<path style=" stroke:none;fill-rule:evenodd;fill:rgb(32.156863%,48.235294%,36.078431%);fill-opacity:1;" d="M 38.152344 23.226562 C 38.179688 23.425781 38.148438 23.609375 38.058594 23.789062 C 37.878906 23.238281 37.722656 22.679688 37.59375 22.109375 C 37.484375 22.148438 37.390625 22.210938 37.3125 22.292969 C 37.25 22.792969 37.1875 23.289062 37.125 23.789062 C 37 23.554688 36.90625 23.554688 36.847656 23.789062 C 36.101562 23.789062 35.355469 23.789062 34.609375 23.789062 C 34.609375 22.234375 34.609375 20.679688 34.609375 19.125 C 36.164062 19.125 37.71875 19.125 39.273438 19.125 C 39.292969 19.976562 39.105469 20.785156 38.710938 21.546875 C 38.589844 21.488281 38.464844 21.425781 38.339844 21.363281 C 38.15625 21.972656 38.09375 22.59375 38.152344 23.226562 Z M 38.152344 23.226562 "/>
<path style=" stroke:none;fill-rule:evenodd;fill:rgb(74.117647%,82.352941%,20%);fill-opacity:1;" d="M 1.398438 19.125 C 2.84375 19.003906 4.210938 19.128906 5.503906 19.496094 C 3.960938 20.082031 2.46875 20.765625 1.027344 21.546875 C 1.050781 20.71875 1.175781 19.910156 1.398438 19.125 Z M 1.398438 19.125 "/>
<path style=" stroke:none;fill-rule:evenodd;fill:rgb(36.862745%,41.960784%,32.156863%);fill-opacity:1;" d="M 44.125 10.355469 C 44.246094 10.355469 44.308594 10.417969 44.308594 10.542969 C 44.308594 11.722656 44.308594 12.902344 44.308594 14.085938 C 45.054688 14.085938 45.800781 14.085938 46.546875 14.085938 C 46.785156 14.5 46.972656 14.933594 47.109375 15.390625 C 46.972656 15.46875 46.878906 15.59375 46.828125 15.765625 C 46.699219 15.320312 46.511719 15.320312 46.269531 15.765625 C 46.09375 15.511719 45.9375 15.261719 45.800781 15.019531 C 45.800781 14.769531 45.800781 14.519531 45.800781 14.273438 C 45.304688 14.273438 44.808594 14.273438 44.308594 14.273438 C 44.277344 14.898438 44.308594 15.519531 44.402344 16.136719 C 44.5625 14.410156 44.78125 14.410156 45.054688 16.136719 C 45.199219 15.929688 45.386719 15.804688 45.617188 15.765625 C 45.664062 16.078125 45.785156 16.355469 45.988281 16.605469 C 45.863281 16.667969 45.738281 16.730469 45.617188 16.792969 C 45.773438 17.101562 45.679688 17.132812 45.335938 16.882812 C 45.296875 17.152344 45.203125 17.402344 45.054688 17.628906 C 44.890625 17.476562 44.828125 17.289062 44.871094 17.070312 C 44.683594 17.070312 44.496094 17.070312 44.308594 17.070312 C 44.355469 16.828125 44.292969 16.644531 44.125 16.511719 C 44.125 15.765625 44.125 15.019531 44.125 14.273438 C 42.570312 14.273438 41.011719 14.273438 39.457031 14.273438 C 39.457031 15.828125 39.457031 17.382812 39.457031 18.9375 C 39.957031 18.9375 40.453125 18.9375 40.953125 18.9375 C 40.976562 19.339844 40.882812 19.710938 40.671875 20.054688 C 40.5 19.902344 40.375 19.714844 40.296875 19.496094 C 40.097656 20.164062 39.972656 20.847656 39.925781 21.546875 C 39.847656 21.464844 39.753906 21.402344 39.644531 21.363281 C 39.335938 21.609375 39.023438 21.859375 38.710938 22.109375 C 38.601562 22.070312 38.511719 22.007812 38.433594 21.921875 C 38.398438 22.394531 38.304688 22.828125 38.152344 23.226562 C 38.09375 22.59375 38.15625 21.972656 38.339844 21.363281 C 38.464844 21.425781 38.589844 21.488281 38.710938 21.546875 C 39.105469 20.785156 39.292969 19.976562 39.273438 19.125 C 37.71875 19.125 36.164062 19.125 34.609375 19.125 C 34.609375 20.679688 34.609375 22.234375 34.609375 23.789062 C 35.355469 23.789062 36.101562 23.789062 36.847656 23.789062 C 36.90625 24.359375 36.84375 24.921875 36.660156 25.464844 C 36.511719 25.171875 36.417969 24.859375 36.378906 24.535156 C 36.335938 24.765625 36.242188 24.949219 36.101562 25.09375 C 36.101562 24.71875 36.101562 24.347656 36.101562 23.972656 C 35.601562 23.972656 35.105469 23.972656 34.609375 23.972656 C 34.609375 24.222656 34.609375 24.472656 34.609375 24.71875 C 34.484375 24.78125 34.359375 24.84375 34.234375 24.90625 C 34.21875 24.640625 34.28125 24.390625 34.421875 24.160156 C 32.933594 23.972656 31.441406 23.914062 29.945312 23.972656 C 29.882812 25.472656 29.945312 26.964844 30.128906 28.453125 C 30.550781 28.613281 30.984375 28.675781 31.4375 28.636719 C 31.53125 29.136719 31.5625 29.636719 31.53125 30.128906 C 31.441406 29.804688 31.316406 29.492188 31.15625 29.199219 C 31.089844 29.589844 30.964844 29.964844 30.785156 30.316406 C 30.691406 30.074219 30.660156 29.828125 30.691406 29.570312 C 30.503906 29.570312 30.316406 29.570312 30.128906 29.570312 C 30.054688 30.066406 30.054688 30.535156 30.128906 30.96875 C 30.070312 31.0625 30.007812 31.15625 29.945312 31.25 C 29.769531 31.027344 29.707031 30.78125 29.757812 30.503906 C 29.570312 30.503906 29.382812 30.503906 29.199219 30.503906 C 29.226562 30.761719 29.195312 31.007812 29.105469 31.25 C 28.847656 30.851562 28.660156 30.417969 28.542969 29.945312 C 28.472656 30.046875 28.378906 30.109375 28.265625 30.128906 C 28.265625 29.882812 28.265625 29.632812 28.265625 29.382812 C 28.453125 29.382812 28.636719 29.382812 28.824219 29.382812 C 28.769531 29.71875 28.832031 30.027344 29.011719 30.316406 C 29.496094 29.960938 29.683594 29.460938 29.570312 28.824219 C 28.078125 28.824219 26.585938 28.824219 25.09375 28.824219 C 25.09375 29.757812 25.09375 30.691406 25.09375 31.625 C 24.941406 32.210938 24.847656 32.832031 24.8125 33.488281 C 24.75 33.425781 24.6875 33.363281 24.625 33.300781 C 24.558594 33.566406 24.402344 33.75 24.160156 33.863281 C 23.90625 33.652344 23.71875 33.402344 23.601562 33.117188 C 24.035156 32.796875 24.347656 32.359375 24.535156 31.808594 C 24.71875 30.886719 24.78125 29.953125 24.71875 29.011719 C 23.226562 29.011719 21.734375 29.011719 20.242188 29.011719 C 20.242188 30.628906 20.242188 32.246094 20.242188 33.863281 C 20.429688 33.863281 20.617188 33.863281 20.800781 33.863281 C 20.726562 33.402344 20.910156 33.152344 21.363281 33.117188 C 21.390625 33.371094 21.359375 33.621094 21.269531 33.863281 C 21.207031 33.800781 21.144531 33.738281 21.082031 33.675781 C 20.921875 33.972656 20.796875 34.28125 20.707031 34.609375 C 20.648438 34.546875 20.585938 34.484375 20.523438 34.421875 C 20.589844 35.28125 20.339844 35.46875 19.777344 34.980469 C 19.8125 34.679688 19.8125 34.367188 19.777344 34.046875 C 19.585938 33.835938 19.460938 33.898438 19.402344 34.234375 C 19.179688 34.035156 19.089844 33.789062 19.125 33.488281 C 19.273438 33.316406 19.429688 33.128906 19.589844 32.929688 C 19.628906 33.199219 19.722656 33.445312 19.871094 33.675781 C 20.054688 32.0625 20.117188 30.445312 20.054688 28.824219 C 18.5 28.824219 16.945312 28.824219 15.390625 28.824219 C 15.390625 30.007812 15.390625 31.1875 15.390625 32.371094 C 15.328125 32.371094 15.265625 32.371094 15.207031 32.371094 C 15.207031 31.1875 15.207031 30.007812 15.207031 28.824219 C 13.652344 28.824219 12.097656 28.824219 10.542969 28.824219 C 10.542969 29.074219 10.542969 29.320312 10.542969 29.570312 C 10.289062 29.753906 10.101562 30.003906 9.980469 30.316406 C 9.726562 30.03125 9.507812 29.722656 9.328125 29.382812 C 8.941406 29.929688 8.691406 29.867188 8.582031 29.199219 C 8.171875 29.710938 7.863281 29.648438 7.648438 29.011719 C 7.347656 29.382812 7.035156 29.757812 6.714844 30.128906 C 6.53125 29.820312 6.34375 29.507812 6.15625 29.199219 C 6.007812 29.753906 5.882812 30.3125 5.785156 30.875 C 5.597656 30.238281 5.320312 29.679688 4.945312 29.199219 C 3.714844 28.832031 2.410156 28.707031 1.027344 28.824219 C 1.027344 28.761719 1.027344 28.699219 1.027344 28.636719 C 2.519531 28.636719 4.011719 28.636719 5.503906 28.636719 C 5.503906 27.082031 5.503906 25.527344 5.503906 23.972656 C -0.714844 23.910156 -0.714844 23.847656 5.503906 23.789062 C 5.503906 22.355469 5.503906 20.925781 5.503906 19.496094 C 5.566406 19.496094 5.628906 19.496094 5.691406 19.496094 C 5.691406 20.925781 5.691406 22.355469 5.691406 23.789062 C 7.246094 23.789062 8.800781 23.789062 10.355469 23.789062 C 10.355469 22.234375 10.355469 20.679688 10.355469 19.125 C 10.355469 19.0625 10.355469 19 10.355469 18.9375 C 10.417969 18.9375 10.480469 18.9375 10.542969 18.9375 C 10.542969 19 10.542969 19.0625 10.542969 19.125 C 10.542969 20.679688 10.542969 22.234375 10.542969 23.789062 C 12.097656 23.789062 13.652344 23.789062 15.207031 23.789062 C 15.207031 22.730469 15.207031 21.671875 15.207031 20.617188 C 15.265625 20.617188 15.328125 20.617188 15.390625 20.617188 C 15.390625 20.679688 15.390625 20.738281 15.390625 20.800781 C 15.390625 21.796875 15.390625 22.792969 15.390625 23.789062 C 16.945312 23.789062 18.5 23.789062 20.054688 23.789062 C 20.054688 23.042969 20.054688 22.292969 20.054688 21.546875 C 20.117188 21.546875 20.179688 21.546875 20.242188 21.546875 C 20.242188 22.292969 20.242188 23.042969 20.242188 23.789062 C 21.734375 23.789062 23.226562 23.789062 24.71875 23.789062 C 24.71875 22.980469 24.71875 22.171875 24.71875 21.363281 C 24.84375 21.363281 24.96875 21.363281 25.09375 21.363281 C 25.09375 22.171875 25.09375 22.980469 25.09375 23.789062 C 26.585938 23.789062 28.078125 23.789062 29.570312 23.789062 C 29.570312 22.542969 29.570312 21.300781 29.570312 20.054688 C 29.570312 19.992188 29.570312 19.929688 29.570312 19.871094 C 29.632812 19.871094 29.695312 19.871094 29.757812 19.871094 C 29.941406 21.140625 30.003906 22.445312 29.945312 23.789062 C 31.4375 23.789062 32.929688 23.789062 34.421875 23.789062 C 34.421875 22.234375 34.421875 20.679688 34.421875 19.125 C 33.363281 19.125 32.308594 19.125 31.25 19.125 C 31.25 19.0625 31.25 19 31.25 18.9375 C 31.3125 18.9375 31.375 18.9375 31.4375 18.9375 C 32.429688 18.9375 33.425781 18.9375 34.421875 18.9375 C 34.421875 18.066406 34.421875 17.195312 34.421875 16.324219 C 34.605469 17.160156 34.667969 18.027344 34.609375 18.9375 C 36.164062 18.9375 37.71875 18.9375 39.273438 18.9375 C 39.273438 17.382812 39.273438 15.828125 39.273438 14.273438 C 38.339844 14.273438 37.40625 14.273438 36.472656 14.273438 C 36.472656 14.210938 36.472656 14.148438 36.472656 14.085938 C 37.40625 14.085938 38.339844 14.085938 39.273438 14.085938 C 39.273438 13.089844 39.273438 12.097656 39.273438 11.101562 C 39.273438 11.039062 39.273438 10.976562 39.273438 10.914062 C 39.335938 10.914062 39.398438 10.914062 39.457031 10.914062 C 39.457031 11.972656 39.457031 13.027344 39.457031 14.085938 C 41.011719 14.085938 42.570312 14.085938 44.125 14.085938 C 44.125 12.84375 44.125 11.597656 44.125 10.355469 Z M 44.125 10.355469 "/>
<path style=" stroke:none;fill-rule:evenodd;fill:rgb(31.764706%,48.627451%,36.078431%);fill-opacity:1;" d="M 24.71875 21.363281 C 24.71875 22.171875 24.71875 22.980469 24.71875 23.789062 C 23.226562 23.789062 21.734375 23.789062 20.242188 23.789062 C 20.242188 23.042969 20.242188 22.292969 20.242188 21.546875 C 21.742188 21.585938 23.234375 21.523438 24.71875 21.363281 Z M 24.71875 21.363281 "/>
<path style=" stroke:none;fill-rule:evenodd;fill:rgb(31.764706%,48.235294%,36.078431%);fill-opacity:1;" d="M 15.390625 20.800781 C 16.554688 21.109375 17.734375 21.296875 18.9375 21.363281 C 19.265625 21.542969 19.640625 21.605469 20.054688 21.546875 C 20.054688 22.292969 20.054688 23.042969 20.054688 23.789062 C 18.5 23.789062 16.945312 23.789062 15.390625 23.789062 C 15.390625 22.792969 15.390625 21.796875 15.390625 20.800781 Z M 15.390625 20.800781 "/>
<path style=" stroke:none;fill-rule:evenodd;fill:rgb(31.764706%,48.627451%,36.078431%);fill-opacity:1;" d="M 29.570312 20.054688 C 29.570312 21.300781 29.570312 22.542969 29.570312 23.789062 C 28.078125 23.789062 26.585938 23.789062 25.09375 23.789062 C 25.09375 22.980469 25.09375 22.171875 25.09375 21.363281 C 25.277344 21.394531 25.402344 21.332031 25.464844 21.175781 C 26.839844 20.839844 28.210938 20.46875 29.570312 20.054688 Z M 29.570312 20.054688 "/>
<path style=" stroke:none;fill-rule:evenodd;fill:rgb(31.764706%,48.235294%,36.078431%);fill-opacity:1;" d="M 31.25 19.125 C 32.308594 19.125 33.363281 19.125 34.421875 19.125 C 34.421875 20.679688 34.421875 22.234375 34.421875 23.789062 C 32.929688 23.789062 31.4375 23.789062 29.945312 23.789062 C 30.003906 22.445312 29.941406 21.140625 29.757812 19.871094 C 29.757812 19.746094 29.820312 19.683594 29.945312 19.683594 C 30.253906 19.652344 30.5 19.527344 30.691406 19.308594 C 30.855469 19.195312 31.042969 19.132812 31.25 19.125 Z M 31.25 19.125 "/>
<path style=" stroke:none;fill-rule:evenodd;fill:rgb(74.117647%,82.352941%,18.823529%);fill-opacity:1;" d="M 29.570312 19.871094 C 29.570312 19.929688 29.570312 19.992188 29.570312 20.054688 C 28.210938 20.46875 26.839844 20.839844 25.464844 21.175781 C 25.109375 20.582031 24.984375 19.898438 25.09375 19.125 C 26.585938 19.125 28.078125 19.125 29.570312 19.125 C 29.570312 19.371094 29.570312 19.621094 29.570312 19.871094 Z M 29.570312 19.871094 "/>
<path style=" stroke:none;fill-rule:evenodd;fill:rgb(74.509804%,83.137255%,18.431373%);fill-opacity:1;" d="M 24.71875 21.363281 C 23.234375 21.523438 21.742188 21.585938 20.242188 21.546875 C 20.242188 20.738281 20.242188 19.929688 20.242188 19.125 C 21.734375 19.125 23.226562 19.125 24.71875 19.125 C 24.71875 19.871094 24.71875 20.617188 24.71875 21.363281 Z M 24.71875 21.363281 "/>
<path style=" stroke:none;fill-rule:evenodd;fill:rgb(63.529412%,70.588235%,23.137255%);fill-opacity:1;" d="M 15.390625 19.308594 C 16.914062 19.125 18.46875 19.0625 20.054688 19.125 C 20.054688 19.929688 20.054688 20.738281 20.054688 21.546875 C 19.640625 21.605469 19.265625 21.542969 18.9375 21.363281 C 19.246094 21.363281 19.558594 21.363281 19.871094 21.363281 C 19.871094 20.679688 19.871094 19.992188 19.871094 19.308594 C 18.375 19.308594 16.882812 19.308594 15.390625 19.308594 Z M 15.390625 19.308594 "/>
<path style=" stroke:none;fill-rule:evenodd;fill:rgb(74.901961%,83.529412%,18.431373%);fill-opacity:1;" d="M 15.390625 19.308594 C 16.882812 19.308594 18.375 19.308594 19.871094 19.308594 C 19.871094 19.992188 19.871094 20.679688 19.871094 21.363281 C 19.558594 21.363281 19.246094 21.363281 18.9375 21.363281 C 17.734375 21.296875 16.554688 21.109375 15.390625 20.800781 C 15.390625 20.738281 15.390625 20.679688 15.390625 20.617188 C 15.390625 20.179688 15.390625 19.746094 15.390625 19.308594 Z M 15.390625 19.308594 "/>
<path style=" stroke:none;fill-rule:evenodd;fill:rgb(31.764706%,48.235294%,36.078431%);fill-opacity:1;" d="M 10.542969 19.125 C 10.664062 19.183594 10.789062 19.246094 10.914062 19.308594 C 11.164062 19.371094 11.410156 19.433594 11.660156 19.496094 C 12.628906 19.882812 13.625 20.191406 14.644531 20.429688 C 14.777344 20.597656 14.964844 20.660156 15.207031 20.617188 C 15.207031 21.671875 15.207031 22.730469 15.207031 23.789062 C 13.652344 23.789062 12.097656 23.789062 10.542969 23.789062 C 10.542969 22.234375 10.542969 20.679688 10.542969 19.125 Z M 10.542969 19.125 "/>
<path style=" stroke:none;fill-rule:evenodd;fill:rgb(69.411765%,78.039216%,21.176471%);fill-opacity:1;" d="M 30.691406 19.308594 C 30.5 19.527344 30.253906 19.652344 29.945312 19.683594 C 29.945312 19.496094 29.945312 19.308594 29.945312 19.125 C 30.242188 19.074219 30.492188 19.136719 30.691406 19.308594 Z M 30.691406 19.308594 "/>
<path style=" stroke:none;fill-rule:evenodd;fill:rgb(74.901961%,83.921569%,18.431373%);fill-opacity:1;" d="M 11.660156 19.496094 C 12.746094 19.3125 13.863281 19.25 15.019531 19.308594 C 15.105469 19.792969 14.984375 20.164062 14.644531 20.429688 C 13.625 20.191406 12.628906 19.882812 11.660156 19.496094 Z M 11.660156 19.496094 "/>
<path style=" stroke:none;fill-rule:evenodd;fill:rgb(63.921569%,70.588235%,22.745098%);fill-opacity:1;" d="M 10.914062 19.308594 C 12.308594 19.125 13.742188 19.0625 15.207031 19.125 C 15.207031 19.621094 15.207031 20.117188 15.207031 20.617188 C 14.964844 20.660156 14.777344 20.597656 14.644531 20.429688 C 14.984375 20.164062 15.105469 19.792969 15.019531 19.308594 C 13.863281 19.25 12.746094 19.3125 11.660156 19.496094 C 11.410156 19.433594 11.164062 19.371094 10.914062 19.308594 Z M 10.914062 19.308594 "/>
<path style=" stroke:none;fill-rule:evenodd;fill:rgb(33.72549%,47.058824%,35.294118%);fill-opacity:1;" d="M 45.800781 15.019531 C 45.664062 15.242188 45.601562 15.492188 45.617188 15.765625 C 45.386719 15.804688 45.199219 15.929688 45.054688 16.136719 C 44.78125 14.410156 44.5625 14.410156 44.402344 16.136719 C 44.308594 15.519531 44.277344 14.898438 44.308594 14.273438 C 44.808594 14.273438 45.304688 14.273438 45.800781 14.273438 C 45.800781 14.519531 45.800781 14.769531 45.800781 15.019531 Z M 45.800781 15.019531 "/>
<path style=" stroke:none;fill-rule:evenodd;fill:rgb(31.764706%,48.627451%,36.470588%);fill-opacity:1;" d="M 5.503906 19.496094 C 5.503906 20.925781 5.503906 22.355469 5.503906 23.789062 C -0.714844 23.847656 -0.714844 23.910156 5.503906 23.972656 C 5.503906 25.527344 5.503906 27.082031 5.503906 28.636719 C 4.011719 28.636719 2.519531 28.636719 1.027344 28.636719 C 0.546875 26.265625 0.546875 23.902344 1.027344 21.546875 C 2.46875 20.765625 3.960938 20.082031 5.503906 19.496094 Z M 5.503906 19.496094 "/>
<path style=" stroke:none;fill-rule:evenodd;fill:rgb(31.764706%,48.235294%,36.078431%);fill-opacity:1;" d="M 5.691406 23.972656 C 7.246094 23.972656 8.800781 23.972656 10.355469 23.972656 C 10.355469 25.527344 10.355469 27.082031 10.355469 28.636719 C 9.941406 28.699219 9.597656 28.574219 9.328125 28.265625 C 9.257812 28.4375 9.132812 28.5625 8.957031 28.636719 C 8.6875 28.429688 8.40625 28.429688 8.117188 28.636719 C 7.832031 28.632812 7.613281 28.507812 7.460938 28.265625 C 6.941406 28.609375 6.347656 28.734375 5.691406 28.636719 C 5.691406 27.082031 5.691406 25.527344 5.691406 23.972656 Z M 5.691406 23.972656 "/>
<path style=" stroke:none;fill-rule:evenodd;fill:rgb(31.764706%,48.235294%,36.078431%);fill-opacity:1;" d="M 10.542969 23.972656 C 12.097656 23.972656 13.652344 23.972656 15.207031 23.972656 C 15.207031 25.527344 15.207031 27.082031 15.207031 28.636719 C 13.652344 28.636719 12.097656 28.636719 10.542969 28.636719 C 10.542969 27.082031 10.542969 25.527344 10.542969 23.972656 Z M 10.542969 23.972656 "/>
<path style=" stroke:none;fill-rule:evenodd;fill:rgb(31.764706%,48.235294%,36.078431%);fill-opacity:1;" d="M 15.390625 23.972656 C 16.945312 23.972656 18.5 23.972656 20.054688 23.972656 C 20.054688 25.527344 20.054688 27.082031 20.054688 28.636719 C 18.5 28.636719 16.945312 28.636719 15.390625 28.636719 C 15.390625 27.082031 15.390625 25.527344 15.390625 23.972656 Z M 15.390625 23.972656 "/>
<path style=" stroke:none;fill-rule:evenodd;fill:rgb(31.372549%,48.627451%,36.470588%);fill-opacity:1;" d="M 20.242188 24.160156 C 21.734375 24.160156 23.226562 24.160156 24.71875 24.160156 C 24.71875 25.652344 24.71875 27.144531 24.71875 28.636719 C 23.226562 28.636719 21.734375 28.636719 20.242188 28.636719 C 20.242188 27.144531 20.242188 25.652344 20.242188 24.160156 Z M 20.242188 24.160156 "/>
<path style=" stroke:none;fill-rule:evenodd;fill:rgb(31.764706%,48.235294%,36.078431%);fill-opacity:1;" d="M 25.09375 23.972656 C 26.585938 23.972656 28.078125 23.972656 29.570312 23.972656 C 29.570312 25.527344 29.570312 27.082031 29.570312 28.636719 C 28.078125 28.636719 26.585938 28.636719 25.09375 28.636719 C 25.09375 27.082031 25.09375 25.527344 25.09375 23.972656 Z M 25.09375 23.972656 "/>
<path style=" stroke:none;fill-rule:evenodd;fill:rgb(32.156863%,48.235294%,36.078431%);fill-opacity:1;" d="M 34.234375 24.90625 C 34.109375 25.316406 33.988281 25.753906 33.863281 26.210938 C 33.6875 25.871094 33.472656 25.808594 33.207031 26.027344 C 33.171875 25.699219 33.078125 25.386719 32.929688 25.09375 C 32.773438 25.769531 32.683594 26.453125 32.648438 27.144531 C 32.546875 26.746094 32.390625 26.375 32.183594 26.027344 C 32.03125 26.574219 31.9375 27.136719 31.902344 27.707031 C 31.84375 27.554688 31.753906 27.429688 31.625 27.332031 C 31.441406 27.75 31.378906 28.1875 31.4375 28.636719 C 30.984375 28.675781 30.550781 28.613281 30.128906 28.453125 C 29.945312 26.964844 29.882812 25.472656 29.945312 23.972656 C 31.441406 23.914062 32.933594 23.972656 34.421875 24.160156 C 34.28125 24.390625 34.21875 24.640625 34.234375 24.90625 Z M 34.234375 24.90625 "/>
<path style=" stroke:none;fill-rule:evenodd;fill:rgb(34.901961%,45.882353%,34.901961%);fill-opacity:1;" d="M 36.101562 25.09375 C 36.152344 25.425781 36.089844 25.738281 35.914062 26.027344 C 35.730469 25.601562 35.574219 25.167969 35.449219 24.71875 C 35.164062 25.042969 34.976562 25.414062 34.886719 25.839844 C 34.675781 25.496094 34.585938 25.121094 34.609375 24.71875 C 34.609375 24.472656 34.609375 24.222656 34.609375 23.972656 C 35.105469 23.972656 35.601562 23.972656 36.101562 23.972656 C 36.101562 24.347656 36.101562 24.71875 36.101562 25.09375 Z M 36.101562 25.09375 "/>
<path style=" stroke:none;fill-rule:evenodd;fill:rgb(32.941176%,48.235294%,36.470588%);fill-opacity:1;" d="M 1.027344 28.824219 C 2.410156 28.707031 3.714844 28.832031 4.945312 29.199219 C 4.726562 29.980469 4.507812 30.730469 4.292969 31.4375 C 4.222656 30.96875 4.066406 30.53125 3.824219 30.128906 C 3.671875 30.871094 3.578125 31.617188 3.542969 32.371094 C 3.40625 32.027344 3.21875 31.714844 2.984375 31.4375 C 2.777344 31.722656 2.5 31.847656 2.144531 31.808594 C 2.144531 32.121094 2.144531 32.429688 2.144531 32.742188 C 1.625 31.492188 1.253906 30.183594 1.027344 28.824219 Z M 1.027344 28.824219 "/>
<path style=" stroke:none;fill-rule:evenodd;fill:rgb(32.54902%,47.45098%,35.686275%);fill-opacity:1;" d="M 15.207031 32.371094 C 15.234375 32.933594 15.203125 33.492188 15.113281 34.046875 C 14.890625 33.074219 14.578125 32.265625 14.179688 31.625 C 13.953125 32.082031 13.828125 32.578125 13.804688 33.117188 C 13.710938 32.671875 13.585938 32.238281 13.433594 31.808594 C 13.277344 31.996094 13.121094 32.183594 12.964844 32.371094 C 12.863281 31.472656 12.707031 30.601562 12.5 29.757812 C 12.304688 29.96875 12.179688 30.214844 12.125 30.503906 C 12.046875 30.285156 11.925781 30.097656 11.753906 29.945312 C 11.570312 30.21875 11.351562 30.46875 11.101562 30.691406 C 10.914062 30.3125 10.726562 29.941406 10.542969 29.570312 C 10.542969 29.320312 10.542969 29.074219 10.542969 28.824219 C 12.097656 28.824219 13.652344 28.824219 15.207031 28.824219 C 15.207031 30.007812 15.207031 31.1875 15.207031 32.371094 Z M 15.207031 32.371094 "/>
<path style=" stroke:none;fill-rule:evenodd;fill:rgb(32.156863%,48.235294%,36.078431%);fill-opacity:1;" d="M 19.125 33.488281 C 19.148438 33.351562 19.117188 33.226562 19.03125 33.117188 C 18.792969 33.507812 18.453125 33.695312 18.003906 33.675781 C 17.933594 31.949219 17.746094 31.949219 17.445312 33.675781 C 17.21875 33.039062 16.96875 32.417969 16.699219 31.808594 C 16.574219 32.183594 16.449219 32.554688 16.324219 32.929688 C 16.152344 32.714844 15.996094 32.714844 15.859375 32.929688 C 15.699219 32.730469 15.542969 32.542969 15.390625 32.371094 C 15.390625 31.1875 15.390625 30.007812 15.390625 28.824219 C 16.945312 28.824219 18.5 28.824219 20.054688 28.824219 C 20.117188 30.445312 20.054688 32.0625 19.871094 33.675781 C 19.722656 33.445312 19.628906 33.199219 19.589844 32.929688 C 19.429688 33.128906 19.273438 33.316406 19.125 33.488281 Z M 19.125 33.488281 "/>
<path style=" stroke:none;fill-rule:evenodd;fill:rgb(31.764706%,48.235294%,36.078431%);fill-opacity:1;" d="M 23.601562 33.117188 C 23.214844 32.902344 22.839844 32.652344 22.480469 32.371094 C 22.246094 32.566406 22.027344 32.753906 21.828125 32.929688 C 21.472656 32.402344 21.316406 32.460938 21.363281 33.117188 C 20.910156 33.152344 20.726562 33.402344 20.800781 33.863281 C 20.617188 33.863281 20.429688 33.863281 20.242188 33.863281 C 20.242188 32.246094 20.242188 30.628906 20.242188 29.011719 C 21.734375 29.011719 23.226562 29.011719 24.71875 29.011719 C 24.78125 29.953125 24.71875 30.886719 24.535156 31.808594 C 24.347656 32.359375 24.035156 32.796875 23.601562 33.117188 Z M 23.601562 33.117188 "/>
<path style=" stroke:none;fill-rule:evenodd;fill:rgb(32.54902%,47.843137%,36.078431%);fill-opacity:1;" d="M 28.265625 30.128906 C 28.011719 30.535156 27.699219 30.90625 27.332031 31.25 C 27.207031 30.9375 27.082031 30.628906 26.957031 30.316406 C 26.804688 30.867188 26.710938 31.425781 26.679688 31.996094 C 26.378906 31.347656 26.039062 30.726562 25.652344 30.128906 C 25.5 30.742188 25.40625 31.367188 25.375 31.996094 C 25.320312 31.824219 25.226562 31.699219 25.09375 31.625 C 25.09375 30.691406 25.09375 29.757812 25.09375 28.824219 C 26.585938 28.824219 28.078125 28.824219 29.570312 28.824219 C 29.683594 29.460938 29.496094 29.960938 29.011719 30.316406 C 28.832031 30.027344 28.769531 29.71875 28.824219 29.382812 C 28.636719 29.382812 28.453125 29.382812 28.265625 29.382812 C 28.265625 29.632812 28.265625 29.882812 28.265625 30.128906 Z M 28.265625 30.128906 "/>
</g>
</svg>
