<svg id="svg" version="1.1" xmlns="http://www.w3.org/2000/svg" style="display: block;" viewBox="0 0 348 356"><path d="M0 0 C114.84 0 229.68 0 348 0 C348 117.48 348 234.96 348 356 C233.16 356 118.32 356 0 356 C0 238.52 0 121.04 0 0 Z " transform="translate(0,0)" style="fill: #020D41;"/><path d="M0 0 C72.27 0 144.54 0 219 0 C219.061875 29.473125 219.12375 58.94625 219.1875 89.3125 C219.21481201 98.58899658 219.24212402 107.86549316 219.27026367 117.4230957 C219.28381348 128.82653809 219.28381348 128.82653809 219.28633118 134.17961121 C219.28910514 137.88633203 219.30026284 141.59292151 219.31672668 145.29960632 C219.33754525 150.05081644 219.3434296 154.80183991 219.33921683 159.55309141 C219.34009568 161.28235086 219.34590015 163.01161791 219.35764539 164.74083769 C219.4568134 180.07291164 217.73442383 195.12687754 213.625 209.9375 C213.41004883 210.72487549 213.19509766 211.51225098 212.97363281 212.32348633 C209.62615653 224.23146127 204.22968577 234.66046494 198.00292969 245.28076172 C197.09774611 246.83244204 196.22274642 248.40163501 195.3515625 249.97265625 C194.90554688 250.64167969 194.45953125 251.31070313 194 252 C193.34 252 192.68 252 192 252 C191.75507813 252.72445312 191.51015625 253.44890625 191.2578125 254.1953125 C180.32361621 278.5765328 144.4800471 293.54312176 121.3671875 302.390625 C112.65152555 305.49243953 106.36547675 305.55418932 97.75 302.3125 C97.00129639 302.03849365 96.25259277 301.7644873 95.48120117 301.48217773 C89.5140394 299.2664278 83.72310866 296.78776067 78 294 C76.91460937 293.49984375 75.82921875 292.9996875 74.7109375 292.484375 C61.59074283 286.25882808 50.48336224 278.03983538 40 268 C39.154375 267.195625 38.30875 266.39125 37.4375 265.5625 C36.633125 264.716875 35.82875 263.87125 35 263 C34.33484375 262.30648438 33.6696875 261.61296875 32.984375 260.8984375 C8.14778127 234.28780136 -0.38622615 198.34577661 -0.22705078 162.79541016 C-0.22643671 160.98147783 -0.22670748 159.16754502 -0.2277813 157.3536129 C-0.22822906 152.53731058 -0.21671715 147.72110955 -0.20256042 142.90483093 C-0.19109055 138.36973789 -0.19062986 133.83466832 -0.18920898 129.29956055 C-0.17875365 116.07469384 -0.15083112 102.84984561 -0.125 89.625 C-0.08375 60.04875 -0.0425 30.4725 0 0 Z " transform="translate(63,30)" style="fill: #020C3F;"/><path d="M0 0 C0.33 0 0.66 0 1 0 C1.15557373 1.14436523 1.31114746 2.28873047 1.47143555 3.46777344 C3.17444277 15.99096045 4.8822281 28.51349099 6.59460449 41.03540039 C6.85845638 42.96491165 7.12221455 44.89443572 7.38586426 46.82397461 C8.08464949 51.93711536 8.78570068 57.04993412 9.4906311 62.16223145 C9.70443389 63.71510418 9.91747259 65.26808231 10.12973022 66.82116699 C10.42423945 68.97482217 10.72151685 71.12807746 11.01953125 73.28125 C11.18557861 74.48845703 11.35162598 75.69566406 11.52270508 76.93945312 C11.89901115 79.35243163 12.34762418 81.65043055 13 84 C17.82862376 76.02382889 22.59207175 68.0146901 27.25 59.9375 C31.45678582 52.65351431 35.68062001 45.37984361 39.9375 38.125 C40.48116211 37.19163818 41.02482422 36.25827637 41.58496094 35.29663086 C44.14440568 30.9467708 46.67777341 26.8265646 50 23 C48.65122424 32.05669038 46.73369307 40.9291026 44.6574707 49.83935547 C44.11646385 52.16164165 43.58005165 54.48494672 43.04492188 56.80859375 C42.34534203 59.8456719 41.64454661 62.88246353 40.94238281 65.91894531 C39.7813936 70.94293089 38.63104271 75.96918252 37.5 81 C37.34031738 81.69754395 37.18063477 82.39508789 37.01611328 83.11376953 C36.40920011 85.82418061 36 88.20921105 36 91 C36.41362793 90.57589844 36.82725586 90.15179688 37.25341797 89.71484375 C39.12207921 87.80472667 40.99839503 85.90231189 42.875 84 C43.52597656 83.33226562 44.17695313 82.66453125 44.84765625 81.9765625 C45.47285156 81.34492188 46.09804687 80.71328125 46.7421875 80.0625 C47.3182373 79.47597656 47.89428711 78.88945312 48.48779297 78.28515625 C50 77 50 77 52 77 C52.26039063 76.401875 52.52078125 75.80375 52.7890625 75.1875 C54.09066101 72.83622528 55.29819196 71.6824774 57.375 70 C63.26920629 65.03016186 68.59382413 59.48726851 74 54 C75 56 75 56 74.23071289 58.37231445 C73.60797485 59.85284302 73.60797485 59.85284302 72.97265625 61.36328125 C72.5135083 62.46889404 72.05436035 63.57450684 71.58129883 64.71362305 C71.08009521 65.90125244 70.5788916 67.08888184 70.0625 68.3125 C69.044904 70.76223175 68.02892424 73.2125581 67.015625 75.6640625 C66.76021439 76.28026962 66.50480377 76.89647675 66.24165344 77.53135681 C63.82614134 83.37718537 61.54654711 89.27036429 59.3125 95.1875 C58.97420166 96.08315674 58.63590332 96.97881348 58.28735352 97.90161133 C57.52222339 99.93340073 56.7606452 101.96652731 56 104 C56.81984375 103.38511719 57.6396875 102.77023438 58.484375 102.13671875 C61.65625 99.7578125 64.828125 97.37890625 68 95 C68.74765625 94.40832031 69.4953125 93.81664062 70.265625 93.20703125 C72 92 72 92 74 92 C74 91.34 74 90.68 74 90 C76.13770618 88.37322909 78.2675534 86.86020356 80.5 85.375 C81.12003906 84.95476562 81.74007812 84.53453125 82.37890625 84.1015625 C83.91517264 83.06162833 85.45707524 82.03002944 87 81 C88 83 88 83 87.21484375 85.58203125 C72.89593074 121.79530667 53.83799013 147.79457973 17.97998047 163.90771484 C1.46058006 171.05390261 1.46058006 171.05390261 -5.36328125 168.6640625 C-7.02052284 168.00287713 -8.67001541 167.32203671 -10.3125 166.625 C-11.63048584 166.07743042 -11.63048584 166.07743042 -12.97509766 165.51879883 C-35.56680096 155.94573255 -55.53037373 143.07560926 -69 122 C-69.47695312 121.30261719 -69.95390625 120.60523438 -70.4453125 119.88671875 C-74.22116934 114.07850181 -76.94675265 107.84136958 -79.6875 101.5 C-80.06825684 100.62174561 -80.44901367 99.74349121 -80.84130859 98.83862305 C-83.31298931 92.99384434 -85.30323583 87.11393301 -87 81 C-81.69261671 83.76906954 -77.26508565 87.10511395 -72.64453125 90.90234375 C-69.17299475 93.65598496 -65.52991438 96.11097972 -61.8359375 98.5546875 C-61.23007813 99.03164062 -60.62421875 99.50859375 -60 100 C-60 100.66 -60 101.32 -60 102 C-58.35 102.66 -56.7 103.32 -55 104 C-58.2428811 95.20491339 -61.58003723 86.45327067 -65.0625 77.75 C-65.40079834 76.90356934 -65.73909668 76.05713867 -66.08764648 75.18505859 C-67.57373688 71.48443748 -69.07479222 67.79380973 -70.65625 64.1328125 C-71.1203125 63.05773437 -71.584375 61.98265625 -72.0625 60.875 C-72.46597656 59.96492188 -72.86945313 59.05484375 -73.28515625 58.1171875 C-73.52105469 57.41851562 -73.75695312 56.71984375 -74 56 C-73.67 55.34 -73.34 54.68 -73 54 C-63 64 -63 64 -60.38671875 66.64453125 C-58.47719954 68.52904857 -56.56141241 70.28863876 -54.5 72 C-51.48631308 74.50192876 -48.75329599 77.21416875 -46 80 C-45.03581485 80.9655019 -44.07095616 81.93033159 -43.10546875 82.89453125 C-40.40364583 85.59635417 -37.70182292 88.29817708 -35 91 C-37.78735277 75.6920542 -40.92683682 60.52536403 -44.58813477 45.40576172 C-46.37334326 37.9723702 -47.85966808 30.56001041 -49 23 C-45.99820018 25.84275709 -44.19781311 29.01585689 -42.25 32.625 C-38.19976255 39.98608414 -33.91226266 47.18746503 -29.5625 54.375 C-23.46972395 64.45888409 -17.62004983 74.64588467 -12 85 C-10.23557612 76.21537007 -9.09776199 67.38191786 -7.99716187 58.49636841 C-6.1987344 43.99817532 -4.27314416 29.52215877 -2.1875 15.0625 C-2.02113541 13.90899048 -2.02113541 13.90899048 -1.85140991 12.73217773 C-1.23826028 8.4875332 -0.62104829 4.24349713 0 0 Z " transform="translate(172,143)" style="fill: #FDFDFE;"/><path d="M0 0 C72.27 0 144.54 0 219 0 C219.061875 29.473125 219.12375 58.94625 219.1875 89.3125 C219.21481201 98.58899658 219.24212402 107.86549316 219.27026367 117.4230957 C219.28381348 128.82653809 219.28381348 128.82653809 219.28633118 134.17961121 C219.28910514 137.88633203 219.30026284 141.59292151 219.31672668 145.29960632 C219.33754525 150.05081644 219.3434296 154.80183991 219.33921683 159.55309141 C219.34009568 161.28235086 219.34590015 163.01161791 219.35764539 164.74083769 C219.4568134 180.07291164 217.73442383 195.12687754 213.625 209.9375 C213.41004883 210.72487549 213.19509766 211.51225098 212.97363281 212.32348633 C209.62615653 224.23146127 204.22968577 234.66046494 198.00292969 245.28076172 C197.09774611 246.83244204 196.22274642 248.40163501 195.3515625 249.97265625 C194.90554688 250.64167969 194.45953125 251.31070313 194 252 C193.34 252 192.68 252 192 252 C191.75507813 252.72445312 191.51015625 253.44890625 191.2578125 254.1953125 C180.32361621 278.5765328 144.4800471 293.54312176 121.3671875 302.390625 C112.65152555 305.49243953 106.36547675 305.55418932 97.75 302.3125 C97.00129639 302.03849365 96.25259277 301.7644873 95.48120117 301.48217773 C89.5140394 299.2664278 83.72310866 296.78776067 78 294 C76.91460937 293.49984375 75.82921875 292.9996875 74.7109375 292.484375 C61.59074283 286.25882808 50.48336224 278.03983538 40 268 C39.154375 267.195625 38.30875 266.39125 37.4375 265.5625 C36.633125 264.716875 35.82875 263.87125 35 263 C34.33484375 262.30648438 33.6696875 261.61296875 32.984375 260.8984375 C8.14778127 234.28780136 -0.38622615 198.34577661 -0.22705078 162.79541016 C-0.22643671 160.98147783 -0.22670748 159.16754502 -0.2277813 157.3536129 C-0.22822906 152.53731058 -0.21671715 147.72110955 -0.20256042 142.90483093 C-0.19109055 138.36973789 -0.19062986 133.83466832 -0.18920898 129.29956055 C-0.17875365 116.07469384 -0.15083112 102.84984561 -0.125 89.625 C-0.08375 60.04875 -0.0425 30.4725 0 0 Z M9 8 C8.938125 36.483125 8.87625 64.96625 8.8125 94.3125 C8.78518799 103.27575439 8.75787598 112.23900879 8.72973633 121.47387695 C8.71969738 129.57271404 8.71969738 129.57271404 8.71366882 137.67155457 C8.71089606 141.25327739 8.69974328 144.83486415 8.68327332 148.41654968 C8.66244205 153.0086905 8.65657265 157.60063818 8.66078317 162.19282186 C8.6599049 163.86346886 8.65410811 165.53412379 8.64235461 167.20472968 C8.42522814 199.61563531 17.31660058 228.86638262 38 254 C38.45503906 254.58910156 38.91007812 255.17820312 39.37890625 255.78515625 C52.72185098 272.47334068 73.45990739 283.64843581 93.03466797 291.23632812 C94.79070183 291.91867271 96.53854716 292.6220048 98.28515625 293.328125 C99.69087891 293.87726563 99.69087891 293.87726563 101.125 294.4375 C101.91132813 294.74558594 102.69765625 295.05367188 103.5078125 295.37109375 C109.75521739 296.94763323 115.03538093 295.68469377 120.9375 293.5 C121.67258789 293.23300293 122.40767578 292.96600586 123.16503906 292.69091797 C135.89023989 287.92780838 147.62301165 281.37799245 159 274 C160.66675781 272.95585938 160.66675781 272.95585938 162.3671875 271.890625 C163.23601562 271.26671875 164.10484375 270.6428125 165 270 C165 269.34 165 268.68 165 268 C165.59425781 267.72027344 166.18851563 267.44054687 166.80078125 267.15234375 C174.54035887 263.09697004 179.77080461 255.77651524 185 249 C185.60972656 248.21753906 186.21945313 247.43507813 186.84765625 246.62890625 C211.0034346 213.99934688 211.33004259 175.40806504 211.20256042 136.64069366 C211.19100813 132.550051 211.1906255 128.45943361 211.18920898 124.36877441 C211.17879351 112.47500158 211.15087116 100.58124926 211.125 88.6875 C211.08375 62.060625 211.0425 35.43375 211 8 C144.34 8 77.68 8 9 8 Z " transform="translate(63,30)" style="fill: #FAFBFB;"/><path d="M0 0 C33.36842105 0 33.36842105 0 39.875 5.375 C43.2215815 9.50901244 44.22307653 12.22365477 43.8125 17.5 C43.27971286 21.26711845 42.39478843 23.96046084 40 27 C39.01 27.66 38.02 28.32 37 29 C37.83144531 29.65355469 37.83144531 29.65355469 38.6796875 30.3203125 C46.23429583 36.53068447 46.23429583 36.53068447 47 42 C47.05454037 48.04307347 46.03748969 52.30778226 42 57 C30.23311474 66.62745158 14.18657976 63 0 63 C0 42.21 0 21.42 0 0 Z " transform="translate(153,50)" style="fill: #FDFDFD;"/><path d="M0 0 C8.46425278 2.82141759 17.56689486 1.42501746 25.59765625 -2.02734375 C36.66639325 -6.50883239 48.21731055 -3.91383334 59 0 C67.46425278 2.82141759 76.56689486 1.42501746 84.59765625 -2.02734375 C94.52684649 -6.04745492 105.07903169 -4.39213876 114.8984375 -1.0234375 C119.21423424 0.40066671 123.5307924 1.19954491 128 2 C128 6.95 128 11.9 128 17 C121.88751286 16.52980868 117.53533935 15.55477201 112 13 C101.97573728 10.41879655 91.25156735 11.13917367 81.5625 14.5 C71.90810532 17.82134371 66.09165598 17.81224641 56.4375 14.5 C43.93270879 10.26660714 32.97133756 10.9327275 20.59985352 15.19824219 C11.69256035 18.23343473 5.69526763 17.74705368 -3.0625 14.5 C-15.94842144 9.76118872 -28.26328565 10.91615273 -40.86328125 15.90625 C-44 17 -44 17 -49 17 C-49 12.05 -49 7.1 -49 2 C-47.040625 1.566875 -45.08125 1.13375 -43.0625 0.6875 C-39.09187861 -0.21102424 -35.34246553 -1.18410462 -31.5625 -2.6875 C-20.87582215 -6.36043498 -10.24239138 -3.76714247 0 0 Z " transform="translate(133,125)" style="fill: #FDFDFD;"/><path d="M0 0 C4.62 0 9.24 0 14 0 C14.01458252 1.205354 14.02916504 2.41070801 14.04418945 3.65258789 C14.10238325 8.14620884 14.17961448 12.63933971 14.26245117 17.13256836 C14.29560159 19.07324235 14.323664 21.01401046 14.34643555 22.95483398 C14.38016384 25.75284747 14.43248819 28.5500061 14.48828125 31.34765625 C14.49467117 32.2083522 14.5010611 33.06904816 14.50764465 33.95582581 C14.63801963 39.35890829 15.46168473 43.20316236 18 48 C21.73851531 51.51193863 25.72314337 51.44615177 30.625 51.29296875 C33.71923423 50.91127867 35.62205669 50.00638966 38 48 C41.56421678 42.65367483 41.19371064 36.99575733 41.31640625 30.76171875 C41.33718735 29.88095169 41.35796844 29.00018463 41.37937927 28.09272766 C41.44453937 25.29106121 41.50360321 22.48930443 41.5625 19.6875 C41.60571715 17.78319394 41.64933244 15.87889688 41.69335938 13.97460938 C41.80018623 9.31649782 41.9015474 4.65829578 42 0 C46.62 0 51.24 0 56 0 C56.09926025 6.40457698 56.17165417 12.80870105 56.21972656 19.21386719 C56.23977764 21.39037888 56.26702571 23.56683714 56.30175781 25.74316406 C56.35056212 28.88099393 56.37303438 32.01810835 56.390625 35.15625 C56.41127014 36.12115356 56.43191528 37.08605713 56.45318604 38.0802002 C56.45557864 45.36869816 54.84104763 50.56275822 50.17578125 56.20703125 C42.1289035 63.14050453 34.99928859 64.5543997 24.4375 64.28125 C16.03655288 63.59389978 9.72978656 61.32032166 4 55 C0.80531399 50.52743958 -0.12845334 46.75701681 -0.11352539 41.32324219 C-0.11341209 39.94226349 -0.11341209 39.94226349 -0.11329651 38.53338623 C-0.10813522 37.54783752 -0.10297394 36.56228882 -0.09765625 35.546875 C-0.0962413 34.53151672 -0.09482635 33.51615845 -0.09336853 32.47003174 C-0.08777516 29.22999108 -0.07522385 25.99001975 -0.0625 22.75 C-0.05748414 20.55208433 -0.05292139 18.35416758 -0.04882812 16.15625 C-0.0378079 10.77080666 -0.02054778 5.38541508 0 0 Z " transform="translate(84,50)" style="fill: #FDFEFE;"/><path d="M0 0 C-0.11347619 1.97986082 -0.2410935 3.95891598 -0.375 5.9375 C-0.44460938 7.03964844 -0.51421875 8.14179687 -0.5859375 9.27734375 C-0.72257812 10.17582031 -0.85921875 11.07429688 -1 12 C-1.99 12.495 -1.99 12.495 -3 13 C-4.68208635 12.02616054 -6.34738161 11.02304948 -8 10 C-13.92750882 8.01081348 -22.25562058 7.6836699 -28.14453125 9.75390625 C-33.62800538 13.29387056 -35.65446241 17.78982652 -37 24 C-37.6045291 31.4961608 -36.43580803 37.98729007 -31.625 43.9375 C-25.62157977 48.65447303 -19.38613326 48.80507916 -12 48 C-9.45612403 47.14585186 -7.20151979 46.14159721 -4.83984375 44.875 C-3 44 -3 44 0 44 C0.495 49.94 0.495 49.94 1 56 C-10.47939974 61.31136406 -22.43037673 63.41267746 -34.7578125 59.02734375 C-42.71156011 55.38303082 -47.43257428 49.95629814 -51 42 C-54.37221137 31.2672888 -53.73480185 20.63719096 -48.78125 10.5078125 C-44.00798778 2.63192983 -37.75282813 -1.47385135 -28.9375 -3.875 C-19.16004604 -5.94638999 -8.61144802 -5.74096534 0 0 Z " transform="translate(260,53)" style="fill: #FBFBFC;"/><path d="M0 0 C2.9252817 0.96045835 6.03405516 1.24816859 9.08203125 1.68359375 C9.08203125 6.63359375 9.08203125 11.58359375 9.08203125 16.68359375 C3.52431922 16.36140755 -0.92015551 15.82102721 -6.04296875 13.62109375 C-17.08969452 9.39506082 -27.42014536 11.16713928 -38.19360352 14.88208008 C-50.14217076 18.91301069 -58.68491683 16.17681452 -69.91796875 11.68359375 C-70.57796875 6.73359375 -71.23796875 1.78359375 -71.91796875 -3.31640625 C-64.91796875 -2.31640625 -64.91796875 -2.31640625 -61.46484375 -0.78125 C-53.53467276 2.49387569 -43.69362282 1.70661507 -35.73046875 -1.25390625 C-34.91191406 -1.61355469 -34.09335938 -1.97320312 -33.25 -2.34375 C-22.77433002 -6.71299929 -10.08910456 -4.39547896 0 0 Z " transform="translate(251.91796875,150.31640625)" style="fill: #FCFDFD;"/><path d="M0 0 C9.03833551 3.0127785 18.98155212 1.26955327 27.609375 -2.125 C30 -3 30 -3 33 -3 C32.34 1.95 31.68 6.9 31 12 C18.71489344 16.91404263 10.16690688 18.9503498 -2.75 14.5 C-15.41297784 10.17465465 -26.33160244 11.03651737 -38.6953125 15.90625 C-42 17 -42 17 -48 17 C-48 12.05 -48 7.1 -48 2 C-46.35 1.731875 -44.7 1.46375 -43 1.1875 C-39.40433489 0.54129574 -36.08428825 -0.21697611 -32.6875 -1.5625 C-21.23973194 -6.02518924 -11.27373388 -3.93711043 0 0 Z " transform="translate(132,150)" style="fill: #FDFDFD;"/><path d="M0 0 C8.25850695 -0.43402372 14.91650274 -0.16879722 22.58203125 3.046875 C25.73667208 4.29038447 28.64523868 4.63535203 32 5 C33 6 33 6 33.09765625 9.16015625 C33.08605469 10.44792969 33.07445312 11.73570312 33.0625 13.0625 C33.05347656 14.35285156 33.04445313 15.64320313 33.03515625 16.97265625 C33.02355469 17.97167969 33.01195312 18.97070312 33 20 C28.50690561 20.16458221 25.27728582 19.98337697 21.1875 18.125 C13.43254484 15.06211855 5.23717321 14.68869655 -3 14 C-2.69024532 12.22868439 -2.37709575 10.45796222 -2.0625 8.6875 C-1.88847656 7.70136719 -1.71445313 6.71523437 -1.53515625 5.69921875 C-1 3 -1 3 0 0 Z " transform="translate(228,172)" style="fill: #FCFDFD;"/><path d="M0 0 C1.27230469 0.00902344 2.54460937 0.01804688 3.85546875 0.02734375 C5.31919922 0.04474609 5.31919922 0.04474609 6.8125 0.0625 C7.31721197 1.83199612 7.81610685 3.60315223 8.3125 5.375 C8.5909375 6.36113281 8.869375 7.34726563 9.15625 8.36328125 C9.8125 11.0625 9.8125 11.0625 9.8125 14.0625 C8.97589844 14.07667969 8.13929687 14.09085938 7.27734375 14.10546875 C-1.18457492 14.45219189 -7.85631498 15.98534188 -15.71484375 19.00390625 C-19.1875 20.0625 -19.1875 20.0625 -26.1875 20.0625 C-26.1875 15.4425 -26.1875 10.8225 -26.1875 6.0625 C-25.06730469 5.71316406 -23.94710937 5.36382812 -22.79296875 5.00390625 C-21.32030778 4.54428595 -19.84765179 4.0846497 -18.375 3.625 C-17.63701172 3.39490234 -16.89902344 3.16480469 -16.13867188 2.92773438 C-10.40966802 1.13904086 -6.02819916 -0.05530458 0 0 Z " transform="translate(110.1875,171.9375)" style="fill: #FDFDFD;"/><path d="M0 0 C6.62528668 -0.27227206 11.16445692 -0.22817277 17 3 C18.56700442 6.13400885 18.85164561 9.63155095 18 13 C15.26234792 15.92627988 13.67461697 16.92091243 9.66796875 17.390625 C6.4453125 17.26041667 3.22265625 17.13020833 0 17 C0 11.39 0 5.78 0 0 Z " transform="translate(167,85)" style="fill: #010B3F;"/><path d="M0 0 C0.18944341 5.39913721 0.09487171 9.91245442 -2 15 C-5.64484741 18.12415492 -9.30591125 18.53979522 -14 19 C-15.15264553 17.25447936 -16.29687327 15.50339804 -17.4375 13.75 C-18.07558594 12.77546875 -18.71367187 11.8009375 -19.37109375 10.796875 C-20.7576136 8.41618385 -21.546581 6.68219693 -22 4 C-20.6696875 4.12375 -20.6696875 4.12375 -19.3125 4.25 C-14.21528919 4.29195235 -9.57969758 2.46139574 -4.79296875 0.875 C-2 0 -2 0 0 0 Z " transform="translate(161,173)" style="fill: #FAFBFB;"/><path d="M0 0 C0.59425781 0.20496094 1.18851563 0.40992188 1.80078125 0.62109375 C7.48673605 2.46925013 12.78189286 3.43301065 18.75 3.7890625 C21 4 21 4 23 5 C22.59007812 5.67546875 22.18015625 6.3509375 21.7578125 7.046875 C21.21898437 7.93890625 20.68015625 8.8309375 20.125 9.75 C19.32449219 11.07257813 19.32449219 11.07257813 18.5078125 12.421875 C17.24403334 14.58274093 16.08501165 16.74570395 15 19 C10.07466481 18.50746648 5.97931217 18.05389073 2 15 C0.22138125 10.10667092 -0.09263202 5.16886685 0 0 Z " transform="translate(184,173)" style="fill: #FBFCFC;"/><path d="M0 0 C5.9855591 -0.27207087 9.77024819 -0.26859488 15 3 C16 4 16 4 16.375 7.3125 C16 11 16 11 14.1875 13.4375 C9.37975734 15.7942366 5.32028699 15.25639937 0 15 C0 10.05 0 5.1 0 0 Z " transform="translate(167,60)" style="fill: #040E41;"/></svg>