<svg id="svg" version="1.1" xmlns="http://www.w3.org/2000/svg" style="display: block;" viewBox="0 0 200 200"><path d="M0 0 C66 0 132 0 200 0 C200 66 200 132 200 200 C134 200 68 200 0 200 C0 134 0 68 0 0 Z " transform="translate(0,0)" style="fill: #01487A;"/><path d="M0 0 C8.62362861 -0.32661974 17.24461288 -0.57421078 25.87292671 -0.72537041 C29.88123393 -0.79798348 33.88526702 -0.89614913 37.89111328 -1.05615234 C67.24908599 -2.1971689 67.24908599 -2.1971689 75.3079834 4.43005371 C80.54501345 9.86065993 83.71434655 15.83364983 83.83959961 23.51220703 C83.7333728 25.05303955 83.7333728 25.05303955 83.625 26.625 C83.59349854 27.71022949 83.56199707 28.79545898 83.52954102 29.91357422 C83.07890833 36.09035791 81.99413182 40.21354534 77.62841797 44.67724609 C75.98733812 46.0823289 74.28531009 47.31699078 72.52734375 48.5703125 C69.63256545 50.78563637 69.63256545 50.78563637 69.90625 54.19921875 C71.23035678 58.80048982 72.81434646 63.23230474 74.5625 67.6875 C75.21571981 69.35570323 75.86309476 71.02620986 76.50390625 72.69921875 C76.79080322 73.42971436 77.0777002 74.16020996 77.37329102 74.9128418 C78 77 78 77 78 81 C80.97 81 83.94 81 87 81 C87 84.96 87 88.92 87 93 C81.39 93 75.78 93 70 93 C69.58113525 91.88963379 69.16227051 90.77926758 68.73071289 89.63525391 C67.17937907 85.52368219 65.62664653 81.41263991 64.07348633 77.30175781 C63.40090251 75.52097805 62.72870035 73.7400541 62.05688477 71.95898438 C61.09230765 69.40196519 60.12636834 66.84546425 59.16015625 64.2890625 C58.85908463 63.49005524 58.558013 62.69104797 58.24781799 61.86782837 C56.75747989 57.87680963 56.75747989 57.87680963 55 54 C53.35 53.67 51.7 53.34 50 53 C50 67.19 50 81.38 50 96 C52.64 96 55.28 96 58 96 C58 99.96 58 103.92 58 108 C49.09 108 40.18 108 31 108 C31 104.04 31 100.08 31 96 C33.31 96 35.62 96 38 96 C38 81.81 38 67.62 38 53 C32.06 53 26.12 53 20 53 C20 62.24 20 71.48 20 81 C22.64 81 25.28 81 28 81 C28 84.96 28 88.92 28 93 C18.76 93 9.52 93 0 93 C0 89.04 0 85.08 0 81 C2.64 81 5.28 81 8 81 C8 58.23 8 35.46 8 12 C5.36 12 2.72 12 0 12 C0 8.04 0 4.08 0 0 Z " transform="translate(56,51)" style="fill: #F9FBFB;"/><path d="M0 0 C5.99805979 -0.1611419 11.98855658 -0.30032014 17.98706055 -0.38452148 C20.02508036 -0.41962907 22.06292504 -0.46732863 24.1003418 -0.52807617 C27.03738656 -0.61342619 29.97209364 -0.65278417 32.91015625 -0.68359375 C33.81459976 -0.71972275 34.71904327 -0.75585175 35.65089417 -0.79307556 C40.65762931 -0.79615234 43.38716549 -0.20875418 47.07250977 3.31030273 C50.31523049 6.86388069 50.94535996 9.63511146 50.875 14.5 C50.61997308 19.17858469 50.32454795 22.74604274 47.3125 26.4375 C42.31554661 30.48461927 36.06295683 29.57438538 30 29 C30 26.36 30 23.72 30 21 C32.64 21 35.28 21 38 21 C38 17.04 38 13.08 38 9 C29.09 9 20.18 9 11 9 C11 12.96 11 16.92 11 21 C13.31 21 15.62 21 18 21 C18 23.64 18 26.28 18 29 C12.06 29 6.12 29 0 29 C0 19.43 0 9.86 0 0 Z " transform="translate(76,63)" style="fill: #186194;"/><path d="M0 0 C5.94 0 11.88 0 18 0 C18 14.19 18 28.38 18 43 C15.36 43 12.72 43 10 43 C9.67 43.99 9.34 44.98 9 46 C8.34 46 7.68 46 7 46 C6.67 45.34 6.34 44.68 6 44 C5.34 44 4.68 44 4 44 C4 43.01 4 42.02 4 41 C5.32 41 6.64 41 8 41 C8 36.71 8 32.42 8 28 C5.36 28 2.72 28 0 28 C0 18.76 0 9.52 0 0 Z " transform="translate(76,104)" style="fill: #094271;"/><path d="M0 0 C11.88 0 23.76 0 36 0 C36.495 1.485 36.495 1.485 37 3 C28.09 3 19.18 3 10 3 C18.25 3.33 26.5 3.66 35 4 C35 4.99 35 5.98 35 7 C26.42 7 17.84 7 9 7 C9 11.29 9 15.58 9 20 C11.64 20 14.28 20 17 20 C17 22.31 17 24.62 17 27 C11.39 27 5.78 27 0 27 C0 18.09 0 9.18 0 0 Z " transform="translate(77,64)" style="fill: #03568B;"/><path d="M0 0 C0.33 0 0.66 0 1 0 C1.33 1.98 1.66 3.96 2 6 C2.66 5.67 3.32 5.34 4 5 C4.33 15.56 4.66 26.12 5 37 C2.36 37 -0.28 37 -3 37 C-3.33 37.99 -3.66 38.98 -4 40 C-4.66 40 -5.32 40 -6 40 C-6.33 39.34 -6.66 38.68 -7 38 C-7.66 38 -8.32 38 -9 38 C-9 37.01 -9 36.02 -9 35 C-7.68 35 -6.36 35 -5 35 C-5 31.04 -5 27.08 -5 23 C-4.34 23.33 -3.68 23.66 -3 24 C-2.34 23.67 -1.68 23.34 -1 23 C-0.67 15.41 -0.34 7.82 0 0 Z " transform="translate(89,110)" style="fill: #003967;"/><path d="M0 0 C0.33 0.66 0.66 1.32 1 2 C2.98985949 2.38932033 4.99199544 2.71887936 7 3 C7.99 3.33 8.98 3.66 10 4 C11.02986298 18.99022781 11.02986298 18.99022781 7.8125 22.9375 C3.13590676 26.57233397 -3.43507707 25.44585436 -9 25 C-9 23.02 -9 21.04 -9 19 C-7.02 19 -5.04 19 -3 19 C-3 19.66 -3 20.32 -3 21 C-2.278125 20.484375 -1.55625 19.96875 -0.8125 19.4375 C2.4195366 17.78557018 3.61608307 17.93648325 7 19 C7 18.34 7 17.68 7 17 C7.66 17 8.32 17 9 17 C9 16.01 9 15.02 9 14 C8.34 14 7.68 14 7 14 C6.67 14.66 6.34 15.32 6 16 C5.01 16 4.02 16 3 16 C3 15.34 3 14.68 3 14 C2.01 14 1.02 14 0 14 C0 11.36 0 8.72 0 6 C0.99 6 1.98 6 3 6 C2.505 5.566875 2.01 5.13375 1.5 4.6875 C0 3 0 3 0 0 Z " transform="translate(116,66)" style="fill: #286390;"/><path d="M0 0 C0.33 1.32 0.66 2.64 1 4 C1.66 4 2.32 4 3 4 C3.33 3.34 3.66 2.68 4 2 C5 3 5 3 5.0625 5.5625 C5.041875 6.366875 5.02125 7.17125 5 8 C7.64 8 10.28 8 13 8 C13 10.31 13 12.62 13 15 C7.39 15 1.78 15 -4 15 C-4 10.71 -4 6.42 -4 2 C-3.34 2 -2.68 2 -2 2 C-2 2.66 -2 3.32 -2 4 C-1.34 4 -0.68 4 0 4 C0 2.68 0 1.36 0 0 Z " transform="translate(81,76)" style="fill: #044E81;"/><path d="M0 0 C2.97 0 5.94 0 9 0 C9 0.99 9 1.98 9 3 C10.32 3.33 11.64 3.66 13 4 C13.99 8.455 13.99 8.455 15 13 C16.32 13 17.64 13 19 13 C18 16 18 16 17 17 C10.24859714 11.35086699 10.24859714 11.35086699 8.79943848 9.30554199 C6.12081175 5.88033592 4.06979308 4.21572698 -0.25669861 3.34327698 C-4.37205615 3.0931531 -8.43820947 3.0551359 -12.55859375 3.09765625 C-14.07318765 3.08826265 -15.58776534 3.0757996 -17.10231018 3.06040955 C-21.06953431 3.02827729 -25.03559872 3.03759086 -29.00286865 3.05578613 C-33.05868055 3.06697065 -37.11419973 3.0386151 -41.16992188 3.01367188 C-49.11352265 2.97060237 -57.05633551 2.97135255 -65 3 C-65 2.67 -65 2.34 -65 2 C-43.55 2 -22.1 2 0 2 C0 1.34 0 0.68 0 0 Z " transform="translate(121,48)" style="fill: #3F80AD;"/><path d="M0 0 C0 3.3 0 6.6 0 10 C0.99 10 1.98 10 3 10 C3 10.66 3 11.32 3 12 C3.66 12 4.32 12 5 12 C5.33 11.34 5.66 10.68 6 10 C6.99 10 7.98 10 9 10 C9 10.99 9 11.98 9 13 C8.34 13 7.68 13 7 13 C7 13.66 7 14.32 7 15 C6.01 15.33 5.02 15.66 4 16 C4 15.34 4 14.68 4 14 C3.21625 14.495 2.4325 14.99 1.625 15.5 C-1 17 -1 17 -3 17 C-3 16.34 -3 15.68 -3 15 C-4.98 15 -6.96 15 -9 15 C-9 16.98 -9 18.96 -9 21 C-5.04 21 -1.08 21 3 21 C3 21.33 3 21.66 3 22 C-1.29 22 -5.58 22 -10 22 C-10 19.36 -10 16.72 -10 14 C-7.36 14 -4.72 14 -2 14 C-2 10.04 -2 6.08 -2 2 C-10.91 2 -19.82 2 -29 2 C-29 5.96 -29 9.92 -29 14 C-29.33 14 -29.66 14 -30 14 C-30 9.71 -30 5.42 -30 1 C-25.75003506 0.83239575 -21.50003241 0.66587679 -17.25 0.5 C-16.0434375 0.45230469 -14.836875 0.40460938 -13.59375 0.35546875 C-11.85351562 0.28779297 -11.85351562 0.28779297 -10.078125 0.21875 C-8.47565918 0.1559082 -8.47565918 0.1559082 -6.84082031 0.09179688 C-4.56153124 0.01814505 -2.28047873 0 0 0 Z " transform="translate(116,70)" style="fill: #37719C;"/><path d="M0 0 C0.66 0.33 1.32 0.66 2 1 C2.66 0.67 3.32 0.34 4 0 C6.56616632 3.84924948 6.55097676 6.4349304 7 11 C7.99 11 8.98 11 10 11 C10 11.99 10 12.98 10 14 C7.36 14 4.72 14 2 14 C1.67 14.99 1.34 15.98 1 17 C0.34 17 -0.32 17 -1 17 C-1.33 16.34 -1.66 15.68 -2 15 C-2.66 15 -3.32 15 -4 15 C-4 14.01 -4 13.02 -4 12 C-2.68 12 -1.36 12 0 12 C0 8.04 0 4.08 0 0 Z " transform="translate(84,133)" style="fill: #04335E;"/><path d="M0 0 C0.33 0.66 0.66 1.32 1 2 C2.9914056 2.38133299 4.99279077 2.71325582 7 3 C7.66 3.33 8.32 3.66 9 4 C9 7.3 9 10.6 9 14 C8.34 14 7.68 14 7 14 C6.67 14.66 6.34 15.32 6 16 C5.01 16 4.02 16 3 16 C3 15.34 3 14.68 3 14 C2.01 14 1.02 14 0 14 C0 11.36 0 8.72 0 6 C0.99 6 1.98 6 3 6 C2.505 5.566875 2.01 5.13375 1.5 4.6875 C0 3 0 3 0 0 Z " transform="translate(116,66)" style="fill: #045389;"/><path d="M0 0 C0.33 0 0.66 0 1 0 C1 29.04 1 58.08 1 88 C0.67 88 0.34 88 0 88 C0 76.45 0 64.9 0 53 C-0.66 53 -1.32 53 -2 53 C-1.83923477 52.27758621 -1.67846954 51.55517242 -1.51283264 50.81086731 C-1.02856747 48.15658004 -0.84442129 45.71938139 -0.79467773 43.02612305 C-0.77473251 42.06550461 -0.75478729 41.10488617 -0.73423767 40.11515808 C-0.71752518 39.0910231 -0.70081268 38.06688812 -0.68359375 37.01171875 C-0.6524221 35.42421562 -0.6524221 35.42421562 -0.62062073 33.80464172 C-0.55536897 30.43232559 -0.49635363 27.05993326 -0.4375 23.6875 C-0.3942916 21.39777866 -0.35067657 19.10806495 -0.30664062 16.81835938 C-0.19971259 11.21231955 -0.09790137 5.60620434 0 0 Z " transform="translate(198,0)" style="fill: #0E6398;"/><path d="M0 0 C0 3.3 0 6.6 0 10 C-1.32 10 -2.64 10 -4 10 C-4.33 16.27 -4.66 22.54 -5 29 C-5.66 28.67 -6.32 28.34 -7 28 C-7 18.76 -7 9.52 -7 0 C-3 -1 -3 -1 0 0 Z " transform="translate(144,62)" style="fill: #0D5A8E;"/><path d="M0 0 C2.24151882 2.24151882 2.96301325 4.0067112 4.125 6.9375 C4.47820312 7.81277344 4.83140625 8.68804687 5.1953125 9.58984375 C6 12 6 12 6 15 C3.69 15 1.38 15 -1 15 C-1 12.36 -1 9.72 -1 7 C-1.66 7 -2.32 7 -3 7 C-3 5.02 -3 3.04 -3 1 C-2.01 0.67 -1.02 0.34 0 0 Z " transform="translate(111,105)" style="fill: #0E4976;"/><path d="M0 0 C1.32 0.33 2.64 0.66 4 1 C3.01 1 2.02 1 1 1 C1 2.98 1 4.96 1 7 C1.66 7 2.32 7 3 7 C3 9.64 3 12.28 3 15 C3.78375 14.814375 4.5675 14.62875 5.375 14.4375 C8 14 8 14 10 15 C9.8125 17.375 9.8125 17.375 9 20 C6.4375 21.3125 6.4375 21.3125 4 22 C2.015625 20.578125 2.015625 20.578125 0 18 C-0.50627389 14.90543827 -0.37696402 11.87526825 -0.25 8.75 C-0.23195313 7.90953125 -0.21390625 7.0690625 -0.1953125 6.203125 C-0.14830798 4.13492605 -0.07656724 2.06731559 0 0 Z " transform="translate(107,105)" style="fill: #023D6D;"/><path d="M0 0 C0.33 0 0.66 0 1 0 C1 18.15 1 36.3 1 55 C0.01 55.495 0.01 55.495 -1 56 C-2.125 48.375 -2.125 48.375 -1 45 C-1.66 44.67 -2.32 44.34 -3 44 C-2.01 43.505 -2.01 43.505 -1 43 C-0.67 28.81 -0.34 14.62 0 0 Z " transform="translate(199,77)" style="fill: #013862;"/><path d="M0 0 C0.99 0 1.98 0 3 0 C3 5.61 3 11.22 3 17 C1.68 17 0.36 17 -1 17 C-1.02721176 15.10424749 -1.04649136 13.20838021 -1.0625 11.3125 C-1.07410156 10.25675781 -1.08570313 9.20101562 -1.09765625 8.11328125 C-1.00865425 5.27589738 -0.64939838 2.7561081 0 0 Z " transform="translate(140,72)" style="fill: #065085;"/><path d="M0 0 C0.33 0 0.66 0 1 0 C1 3.96 1 7.92 1 12 C3.31 12 5.62 12 8 12 C8 18.6 8 25.2 8 32 C7.67 32 7.34 32 7 32 C6.95101562 31.28972656 6.90203125 30.57945313 6.8515625 29.84765625 C6.77679688 28.92855469 6.70203125 28.00945312 6.625 27.0625 C6.52058594 25.68771484 6.52058594 25.68771484 6.4140625 24.28515625 C6.20910156 23.15400391 6.20910156 23.15400391 6 22 C5.34 21.67 4.68 21.34 4 21 C4 18.36 4 15.72 4 13 C2.68 13 1.36 13 0 13 C0 8.71 0 4.42 0 0 Z " transform="translate(55,51)" style="fill: #0B5A8F;"/><path d="M0 0 C1.98 0 3.96 0 6 0 C6 0.99 6 1.98 6 3 C6.61875 3.12375 7.2375 3.2475 7.875 3.375 C10 4 10 4 12 6 C8.04 6 4.08 6 0 6 C0 4.02 0 2.04 0 0 Z " transform="translate(107,85)" style="fill: #024B7F;"/><path d="M0 0 C3.1875 -0.375 3.1875 -0.375 7 0 C9.1403498 1.81188028 10.38988302 3.65801167 12 6 C11.01 6 10.02 6 9 6 C8.67 5.34 8.34 4.68 8 4 C6.35 4.33 4.7 4.66 3 5 C3.99 5.33 4.98 5.66 6 6 C6 6.66 6 7.32 6 8 C5.01 8 4.02 8 3 8 C0 2.25 0 2.25 0 0 Z " transform="translate(113,64)" style="fill: #0C5D91;"/><path d="M0 0 C2.86724686 0.57344937 3.8614515 0.8614515 6 3 C5.625 5.625 5.625 5.625 5 8 C4.01 8.33 3.02 8.66 2 9 C0.50178941 5.62902617 0 3.79557881 0 0 Z " transform="translate(129,113)" style="fill: #084270;"/><path d="M0 0 C0.66666667 2.66666667 1.33333333 5.33333333 2 8 C1.01 8.495 1.01 8.495 0 9 C-0.33 8.34 -0.66 7.68 -1 7 C-1.99 7.495 -1.99 7.495 -3 8 C-3 5.69 -3 3.38 -3 1 C-2.01 0.67 -1.02 0.34 0 0 Z " transform="translate(118,151)" style="fill: #012C55;"/><path d="M0 0 C0.7425 0.639375 1.485 1.27875 2.25 1.9375 C4.7111121 3.78333407 6.03466926 4.56069174 9 5 C8 8 8 8 7 9 C5.82460004 8.07347299 4.65989423 7.13336613 3.5 6.1875 C2.52546875 5.40439453 2.52546875 5.40439453 1.53125 4.60546875 C0 3 0 3 0 0 Z " transform="translate(131,56)" style="fill: #1E6A9C;"/><path d="M0 0 C2.97 0 5.94 0 9 0 C8.34 1.32 7.68 2.64 7 4 C4.69 3.34 2.38 2.68 0 2 C0 1.34 0 0.68 0 0 Z " transform="translate(121,48)" style="fill: #035E97;"/><path d="M0 0 C1.98 0 3.96 0 6 0 C6.33 0.99 6.66 1.98 7 3 C4.69 3 2.38 3 0 3 C0 2.01 0 1.02 0 0 Z " transform="translate(107,144)" style="fill: #0C365F;"/><path d="M0 0 C2 2 2 2 2 5 C1.34 5 0.68 5 0 5 C0 4.34 0 3.68 0 3 C-0.66 3 -1.32 3 -2 3 C-2.33 4.32 -2.66 5.64 -3 7 C-3 5.02 -3 3.04 -3 1 C-2.01 0.67 -1.02 0.34 0 0 Z " transform="translate(111,105)" style="fill: #174D7C;"/></svg>