<?xml version="1.0" standalone="no"?>
<!DOCTYPE svg PUBLIC "-//W3C//DTD SVG 20010904//EN"
 "http://www.w3.org/TR/2001/REC-SVG-20010904/DTD/svg10.dtd">
<svg version="1.0" xmlns="http://www.w3.org/2000/svg"
 width="200.000000pt" height="200.000000pt" viewBox="0 0 200.000000 200.000000"
 preserveAspectRatio="xMidYMid meet">

<g transform="translate(0.000000,200.000000) scale(0.100000,-0.100000)"
fill="#000000" stroke="none">
<path d="M0 1000 l0 -1000 1000 0 1000 0 0 1000 0 1000 -1000 0 -1000 0 0
-1000z m1307 426 l73 -75 0 -128 0 -127 -67 -68 -67 -68 13 -37 c8 -21 32 -84
53 -140 l40 -103 39 0 39 0 0 -60 0 -60 -83 0 -83 0 -76 198 c-63 162 -80 198
-97 200 -21 3 -21 1 -21 -212 l0 -216 35 0 35 0 0 -60 0 -60 -135 0 -135 0 0
60 0 60 35 0 35 0 0 215 0 215 -90 0 -91 0 3 -137 3 -138 38 -3 37 -3 0 -60 0
-59 -140 0 -140 0 0 59 0 60 38 3 37 3 3 170 c2 94 0 248 -3 343 l-7 172 -34
0 -34 0 0 58 c0 32 3 62 7 65 3 4 155 7 337 7 l330 0 73 -74z"/>
<path d="M760 1225 l0 -145 90 0 90 0 0 39 c0 39 -1 40 -37 43 l-38 3 0 60 0
60 138 3 137 3 0 -66 0 -65 -35 0 c-34 0 -35 -1 -35 -40 l0 -40 58 0 c53 0 61
3 90 33 30 31 32 37 32 108 0 72 -1 76 -35 112 l-35 37 -210 0 -210 0 0 -145z"/>
</g>
</svg>
